<?xml version="1.0" encoding="utf-8"?>
<!-- Generator: Adobe Illustrator 24.0.2, SVG Export Plug-In . SVG Version: 6.00 Build 0)  -->
<svg version="1.1" xmlns="http://www.w3.org/2000/svg" xmlns:xlink="http://www.w3.org/1999/xlink" x="0px" y="0px"
	 viewBox="0 0 40 40" style="enable-background:new 0 0 40 40;" xml:space="preserve">
<style type="text/css">
	.st0{fill:url(#SVGID_1_);}
	.st1{fill:#FFFFFF;}
</style>
<g id="Capa_1">
	
		<linearGradient id="SVGID_1_" gradientUnits="userSpaceOnUse" x1="-269.575" y1="429.838" x2="-269.575" y2="430.8087" gradientTransform="matrix(40 0 0 -39.7778 10803.001 17136.6152)">
		<stop  offset="0" style="stop-color:#0062E0"/>
		<stop  offset="1" style="stop-color:#19AFFF"/>
	</linearGradient>
	<path class="st0" d="M16.67,39.78C7.22,38.11,0,29.89,0,20C0,9,9,0,20,0s20,9,20,20c0,9.89-7.22,18.11-16.67,19.78l-1.11-0.89
		h-4.44L16.67,39.78z"/>
	<path class="st1" d="M16.67,39.44v0.22C17.78,39.89,18.89,40,20,40c1.11,0,2.22-0.11,3.33-0.33V25.56h4.44L28.67,20h-5.33v-3.89
		c0-1.56,0.56-2.78,3-2.78h2.56V8.22c-1.44-0.22-3-0.44-4.44-0.44c-4.56,0-7.78,2.78-7.78,7.78V20h-5v5.56h5V39.44"/>
</g>
<g id="Capa_2">
</g>
</svg>
