<svg width="800" height="600" xmlns="http://www.w3.org/2000/svg">

 <g>
  <title>Layer 1</title>
  <path stroke-width="0" id="svg_1" d="m509.82017,360.14887c0,0 13.82918,-57.1736 0,-76.54096c-13.84547,-19.36735 -19.36736,-32.26806 -49.8111,-41.5038s-19.35107,-7.3951 -41.48753,-6.45036c-22.13646,0.92846 -40.59165,12.90071 -40.59165,19.35107c0,0 -13.82918,0.92846 -19.35107,6.46664c-5.53819,5.53818 -14.75764,31.3396 -14.75764,37.80625s4.60973,49.81108 9.21945,59.03052l-5.48932,1.84063c-4.60973,53.47605 18.4389,59.94269 18.4389,59.94269c8.29099,49.81108 16.59827,28.60309 16.59827,41.5038s-8.30728,8.30728 -8.30728,8.30728s-7.36253,20.27953 -25.80143,27.65834c-18.4389,7.36253 -120.79761,47.00941 -129.12118,55.31668c-8.32357,8.32356 -7.37882,47.04198 -7.37882,47.04198l438.93383,0c0,0 0.96104,-38.71842 -7.36253,-47.04198c-8.33986,-8.32356 -110.69857,-47.95416 -129.13747,-55.31668c-18.4389,-7.37882 -25.80143,-27.65834 -25.80143,-27.65834s-8.30728,4.59343 -8.30728,-8.30728s8.30728,8.30728 16.61456,-41.5038c0,0 23.03234,-6.46664 18.4389,-59.94269l-5.53819,0z" stroke="#000" fill="#f6ae2d"/>
  <path stroke="#f6ae2d" opacity="undefined" id="svg_7" d="m432.5,763c-156.62983,0 -283.5,-126.87017 -283.5,-283.5c0,-156.62983 126.87017,-283.5 283.5,-283.5c156.62983,0 283.5,126.87017 283.5,283.5c0,156.62983 -126.87017,283.5 -283.5,283.5z" stroke-width="10" fill="none"/>
 </g>
</svg>