<?xml version="1.0" encoding="utf-8"?>
<!-- Generator: Adobe Illustrator 24.0.2, SVG Export Plug-In . SVG Version: 6.00 Build 0)  -->
<svg version="1.1" id="Capa_1" xmlns="http://www.w3.org/2000/svg" xmlns:xlink="http://www.w3.org/1999/xlink" x="0px" y="0px"
	 viewBox="0 0 1920 1080" style="enable-background:new 0 0 1920 1080;" xml:space="preserve">
<style type="text/css">
	.st0{fill:#F26419;}
	.st1{fill:#F6AE2D;}
</style>
<g>
	<path d="M511.58,530.28c3.83-2.66,7.64-5.36,11.55-7.91c3.87-2.61,7.81-5.12,11.75-7.63c3.95-2.5,7.98-4.86,11.97-7.3
		c4.05-2.33,8.07-4.73,12.16-7c16.35-9.11,33.17-17.41,50.36-24.94c17.23-7.43,34.81-14.09,52.68-19.96
		c17.91-5.73,36.1-10.64,54.5-14.66c73.6-16.11,150.47-17.96,224.95-5.08c9.07,1.58,18.08,2.99,27.18,4.07
		c2.27,0.31,4.54,0.54,6.82,0.78c2.27,0.24,4.55,0.52,6.82,0.74c4.56,0.38,9.11,0.88,13.68,1.14l6.85,0.46
		c2.28,0.13,4.57,0.21,6.86,0.32c2.29,0.09,4.57,0.23,6.86,0.27l6.86,0.14c9.15,0.18,18.31,0.08,27.47-0.21
		c18.3-0.66,36.58-2.26,54.73-4.88c9.07-1.36,18.12-2.82,27.1-4.71l6.75-1.34c2.25-0.45,4.51-0.86,6.73-1.45l13.38-3.26
		c4.49-0.99,8.88-2.35,13.3-3.59l6.63-1.89c2.21-0.63,4.43-1.23,6.6-1.99l13.11-4.29l3.28-1.07l3.24-1.19l6.48-2.38l6.48-2.38
		c2.17-0.77,4.27-1.72,6.41-2.57c4.26-1.76,8.54-3.46,12.78-5.27l12.61-5.69c1.05-0.48,2.11-0.93,3.15-1.44l3.11-1.52l6.23-3.02
		c2.07-1.02,4.17-1.99,6.22-3.05l6.13-3.22l6.14-3.22c2.05-1.06,4.03-2.25,6.06-3.37c4.01-2.3,8.1-4.48,12.02-6.93l5.96-3.56
		l2.99-1.78l2.94-1.85c7.86-4.91,15.61-10.01,23.21-15.33l5.72-3.98l5.64-4.1c3.78-2.71,7.45-5.56,11.19-8.34l0.64,0.77
		c-27.44,25.28-58.07,47.25-90.78,65.68l-6.15,3.43c-2.05,1.15-4.11,2.28-6.22,3.32l-12.57,6.38c-4.24,2.03-8.52,3.97-12.78,5.96
		c-2.14,0.97-4.25,2.03-6.43,2.91l-6.51,2.73l-6.51,2.73l-3.26,1.36l-3.3,1.25l-13.25,4.91c-2.2,0.85-4.45,1.55-6.69,2.28
		l-6.73,2.18c-4.49,1.44-8.95,2.99-13.52,4.17l-13.65,3.76c-2.27,0.67-4.57,1.16-6.87,1.69l-6.9,1.59l-6.9,1.58l-3.45,0.79
		l-3.48,0.67l-6.96,1.31c-2.32,0.43-4.64,0.9-6.98,1.24c-18.63,3.14-37.46,5.23-56.35,6.18c-9.45,0.45-18.9,0.74-28.36,0.67
		l-7.09-0.08c-2.37-0.02-4.73-0.14-7.09-0.21c-2.36-0.09-4.73-0.15-7.09-0.26l-7.08-0.4c-18.88-1.08-37.74-3.41-56.33-6.62
		l-6.87-1.22l-6.71-0.99c-2.22-0.35-4.52-0.62-6.79-0.93c-2.27-0.3-4.54-0.64-6.82-0.89c-4.56-0.52-9.11-1.11-13.68-1.52l-6.85-0.67
		l-6.86-0.54c-18.3-1.38-36.66-2.1-55.02-1.88c-18.36,0.17-36.72,1.14-55,2.92c-18.29,1.74-36.52,4.26-54.61,7.66
		c-36.17,6.74-71.89,16.39-106.51,29.36c-34.72,12.72-68.29,28.68-100.71,46.99L511.58,530.28z"/>
</g>
<g>
	<path d="M913.68,348.99c2.69,4.02,4.83,8.12,6.88,12.24c2.04,4.12,3.83,8.27,5.5,12.44c3.33,8.34,6.04,16.78,8.33,25.28
		c2.28,8.5,4.09,17.07,5.55,25.69c0.71,4.31,1.33,8.64,1.96,12.97l1.9,12.98l7.59,51.91l7.38,51.94l-0.2-1.1
		c5.01,22.84,6.72,46.57,4.42,70.03c-1.14,11.72-3.2,23.37-6.33,34.74c-3.11,11.36-7.19,22.46-12.18,33.11
		c-4.97,10.66-10.93,20.82-17.57,30.4c-6.63,9.56-14.08,18.54-21.52,26.87c-1.79,2.06-3.85,4.2-5.78,6.3
		c-1.98,2.08-3.87,4.27-5.95,6.23l-6.15,5.99c-2.05,2-4.22,3.84-6.32,5.77c-4.18,3.88-8.61,7.42-12.94,11.08
		c-2.19,1.8-4.44,3.5-6.66,5.25c-2.23,1.73-4.44,3.5-6.73,5.14c-18.16,13.37-37.11,25.38-56.65,36.12
		c-9.73,5.44-19.64,10.5-29.59,15.46c-10.01,4.83-20.05,9.54-30.21,13.97c-40.64,17.69-82.42,32.36-125.07,43.52l-0.31-0.95
		c20.5-8,40.7-16.63,60.65-25.71c9.99-4.5,19.88-9.22,29.7-14.03c9.84-4.77,19.56-9.78,29.21-14.88
		c19.29-10.21,38.2-21.05,56.48-32.73c4.6-2.87,9.06-5.94,13.59-8.91c2.27-1.48,4.46-3.06,6.69-4.59c2.21-1.55,4.47-3.04,6.63-4.65
		c4.35-3.18,8.75-6.31,12.97-9.63c2.12-1.65,4.29-3.25,6.37-4.94l6.24-5.07c2.11-1.66,4.11-3.43,6.14-5.16
		c2.01-1.75,4.08-3.45,6.05-5.25c3.9-3.63,7.91-7.14,11.61-10.93c1.86-1.88,3.81-3.69,5.61-5.62l5.39-5.78
		c1.85-1.88,3.48-3.93,5.21-5.9c1.71-2.01,3.41-3.89,5.14-6.05c6.88-8.34,13.16-16.58,18.74-25.31
		c5.51-8.73,10.51-17.71,14.52-27.12c8.1-18.77,12.91-38.86,14.45-59.2c0.79-10.17,0.66-20.43-0.21-30.63
		c-0.87-10.2-2.48-20.35-4.8-30.38l-0.11-0.46l-0.1-0.64l-8.02-51.84l-7.81-51.87l-1.95-12.97c-0.65-4.32-1.32-8.64-1.89-12.98
		c-1.11-8.67-1.87-17.4-2.15-26.2c-0.28-8.8-0.13-17.66,0.63-26.61c0.39-4.48,0.9-8.97,1.65-13.5c0.77-4.53,1.62-9.08,3.03-13.71
		L913.68,348.99z"/>
</g>
<g>
	<path d="M1288.93,919.39c1.48-10.89,2.78-21.74,3.12-32.63c0.38-10.87,0.11-21.72-0.91-32.44c-1.05-10.72-2.82-21.32-5.5-31.64
		l-1.01-3.86l-1.13-3.83c-0.71-2.56-1.62-5.06-2.43-7.58c-1.78-4.99-3.69-9.92-5.89-14.73c-4.34-9.63-9.54-18.83-15.35-27.59
		l-4.49-6.48c-1.57-2.11-3.2-4.17-4.79-6.26c-1.55-2.12-3.31-4.08-5.01-6.08c-1.72-1.99-3.36-4.03-5.22-5.9l-5.41-5.72l-5.66-5.48
		c-1.84-1.87-3.88-3.55-5.83-5.3c-1.98-1.73-3.9-3.52-5.99-5.13l-6.14-4.95l-6.36-4.68c-1.07-0.77-2.1-1.58-3.2-2.31l-3.27-2.21
		l-3.27-2.21c-1.09-0.74-2.17-1.49-3.31-2.16l-6.73-4.15c-1.11-0.71-2.26-1.36-3.41-2l-3.45-1.94c-4.54-2.67-9.32-4.95-13.99-7.38
		c-2.36-1.17-4.78-2.25-7.16-3.38l-3.58-1.68c-1.2-0.56-2.43-1.04-3.64-1.56l-7.3-3.09c-2.46-0.98-4.94-1.89-7.41-2.84
		c-19.78-7.48-40.31-13.06-61.15-17.03c-20.83-4.07-42.03-6.34-63.28-7.16c-2.66-0.1-5.31-0.26-7.97-0.31l-7.98-0.09
		c-5.32-0.14-10.65,0.08-15.97,0.16c-2.66,0.02-5.32,0.17-7.98,0.31l-7.98,0.4c-2.66,0.12-5.31,0.41-7.97,0.6l-1.99,0.16
		c-0.33,0.02-0.66,0.08-1,0.06c-0.34-0.02-0.69-0.2-1.05-0.5c-0.18-0.16-0.36-0.35-0.55-0.57l-0.57-0.81l-0.6-1.04
		c-0.21-0.45-0.41-0.81-0.63-1.34c-0.44-1.12-0.86-2.05-1.34-3.58l-0.35-1.05l-0.37-1.27c-0.24-0.77-0.52-1.9-0.79-2.9l-0.09-1
		c0.08-1.03,0.14-2.19,0.24-2.98l0.14-1.31l0.16-1.09c0.2-1.59,0.46-2.57,0.71-3.74c0.13-0.56,0.27-0.94,0.4-1.42
		c0.14-0.38,0.28-0.77,0.43-1.12l0.45-0.89c0.15-0.25,0.31-0.47,0.47-0.65c0.32-0.35,0.66-0.59,1.01-0.66
		c0.35-0.07,0.7-0.07,1.05-0.1l2.11-0.16c2.82-0.19,5.62-0.47,8.45-0.59l8.46-0.39c2.82-0.13,5.64-0.27,8.47-0.28
		c5.65-0.06,11.3-0.26,16.95-0.09l8.48,0.14c2.83,0.07,5.65,0.25,8.48,0.37c22.59,1.21,45.15,3.89,67.33,8.69l8.3,1.84
		c2.77,0.62,5.5,1.39,8.25,2.08l4.12,1.06l2.06,0.53l2.04,0.6l8.17,2.41c2.73,0.76,5.42,1.71,8.12,2.6c2.69,0.91,5.4,1.75,8.07,2.73
		l7.98,3.01c1.33,0.51,2.67,0.98,3.98,1.53l3.94,1.65c2.62,1.11,5.25,2.18,7.86,3.33l7.75,3.6c1.29,0.61,2.59,1.18,3.86,1.82
		l3.81,1.94c2.53,1.31,5.09,2.56,7.59,3.92c4.95,2.84,9.97,5.53,14.77,8.63l3.63,2.26c1.22,0.75,2.42,1.5,3.59,2.32l7.08,4.81
		c1.19,0.78,2.34,1.64,3.48,2.5l3.44,2.56l3.44,2.56c1.15,0.84,2.23,1.8,3.34,2.69l6.62,5.44l6.39,5.73
		c2.16,1.87,4.16,3.92,6.21,5.92c2.03,2.02,4.12,3.96,6.03,6.11l5.82,6.31l5.5,6.6c1.87,2.16,3.54,4.5,5.27,6.78
		c1.71,2.29,3.48,4.55,5.03,6.96c1.59,2.38,3.22,4.73,4.78,7.13l4.4,7.37c5.62,9.97,10.53,20.33,14.42,31.06
		c7.75,21.5,11.26,44.21,11.19,66.6c-0.02,11.21-0.97,22.35-2.58,33.33l-1.43,8.2c-0.22,1.37-0.52,2.72-0.82,4.07l-0.89,4.05
		c-1.06,5.42-2.7,10.72-4.1,16.04L1288.93,919.39z"/>
</g>
<g>
	<path class="st0" d="M1032.5,337.5c-1.52,4.69-3.67,9.17-6.1,13.51c-2.46,4.33-5.29,8.5-8.5,12.42
		c-6.4,7.85-14.29,14.86-23.6,20.08c-9.29,5.22-19.93,8.6-30.94,9.72c-11.03,1.17-22.46-0.14-33.13-3.49
		c-5.35-1.66-10.54-3.81-15.45-6.42c-4.91-2.6-9.64-5.53-14.04-8.86c-4.41-3.31-8.58-6.92-12.48-10.79
		c-3.85-3.91-7.44-8.07-10.77-12.43c-3.34-4.36-6.31-9-9.05-13.8c-2.73-4.8-5.15-9.83-7.16-15.08c-1.01-2.63-1.94-5.29-2.77-8.02
		c-0.45-1.38-0.76-2.65-1.13-3.97c-0.36-1.31-0.73-2.62-1.02-3.95c-1.32-5.29-2.18-10.7-2.79-16.15c-0.61-5.45-0.77-10.97-0.6-16.49
		c0.18-5.52,0.73-11.05,1.8-16.53c1.98-10.96,5.71-21.73,11.24-31.74c5.5-9.99,12.88-19.29,22.31-26.52
		c4.69-3.61,9.88-6.66,15.37-8.96c2.74-1.15,5.57-2.12,8.43-2.87c2.79-0.77,5.91-1.36,8.95-1.64c6.1-0.59,12.08-0.12,17.67,1.03
		c5.6,1.17,10.82,3.08,15.71,5.32c9.78,4.52,18.22,10.56,25.87,17.29c1.9,1.71,3.79,3.43,5.54,5.3c0.88,0.94,1.8,1.84,2.64,2.81
		l2.51,2.9c3.26,3.94,6.09,8.18,8.59,12.54c4.94,8.76,8.33,18.2,9.91,27.79c-2.32-4.27-4.82-8.36-7.54-12.23
		c-2.73-3.86-5.67-7.51-8.83-10.88c-3.13-3.4-6.51-6.49-10.01-9.34l-2.68-2.06c-0.89-0.69-1.84-1.29-2.75-1.94
		c-1.84-1.3-3.75-2.5-5.69-3.66c-7.77-4.62-16.07-8.29-24.26-10.48c-8.19-2.14-16.29-2.64-23.02-0.85c-1.7,0.43-3.23,1.04-4.99,1.76
		c-1.7,0.7-3.34,1.52-4.9,2.45c-3.14,1.85-6.02,4.11-8.61,6.73c-5.18,5.23-9.18,11.85-11.98,19.11c-1.4,3.63-2.48,7.43-3.34,11.3
		c-0.39,1.95-0.78,3.9-1.04,5.88c-0.18,0.98-0.29,1.98-0.41,2.97c-0.13,0.99-0.25,1.98-0.32,2.99c-0.2,2-0.27,4.02-0.4,6.03
		c-0.02,2.03-0.13,4.04-0.07,6.08l0,1.52l0.06,1.53c0.05,1.02,0.04,2.03,0.13,3.05l0.19,3.06l0.29,3.06
		c0.07,1.02,0.22,2.04,0.35,3.06c0.13,1.02,0.24,2.04,0.41,3.05l0.47,3.05l0.57,3.04c0.16,1.02,0.41,2.03,0.63,3.04
		c0.23,0.99,0.43,2.07,0.69,2.98c0.46,1.89,1.03,3.77,1.64,5.65c1.26,3.76,2.73,7.51,4.48,11.18c1.73,3.68,3.77,7.23,5.92,10.72
		c2.17,3.48,4.56,6.84,7.15,10.02c2.57,3.2,5.33,6.24,8.29,9.05c2.96,2.8,6.04,5.47,9.33,7.82c3.28,2.36,6.74,4.44,10.33,6.22
		c7.19,3.5,14.98,5.83,23.12,6.32c4.07,0.25,8.2,0.12,12.32-0.47c4.12-0.58,8.23-1.6,12.29-2.98c8.14-2.75,16.05-7.03,23.62-12.27
		C1018.5,350.76,1025.68,344.53,1032.5,337.5z"/>
</g>
<g>
	<path class="st1" d="M106.96,291.1c0.29-1.27,0.64-2.68,1.05-4.22c0.41-1.55,0.85-3.15,1.32-4.81c0.47-1.66,0.95-3.34,1.44-5.03
		c0.49-1.69,0.97-3.32,1.44-4.88c0.47-1.56,0.9-3.02,1.29-4.37c0.39-1.35,0.73-2.5,1.03-3.44c0.62-2.12,1.2-4.24,1.76-6.37
		c0.55-2.13,1.09-4.37,1.61-6.71c0.65-1.27,1.53-2.17,2.64-2.71c1.11-0.54,2.31-0.81,3.61-0.81c1.04,0.55,1.86,1.31,2.47,2.27
		c0.6,0.96,0.9,2.04,0.9,3.25c0,0.85-0.14,1.81-0.42,2.91c-0.28,1.09-0.63,2.26-1.05,3.52c-0.42,1.25-0.9,2.57-1.42,3.96
		c-0.52,1.38-1.03,2.81-1.51,4.27c-0.91,2.67-1.82,5.34-2.73,8.01c-0.91,2.67-1.81,5.49-2.69,8.45c-0.23,0.78-0.47,1.56-0.73,2.34
		c-0.26,0.78-0.53,1.63-0.81,2.54c-0.28,0.91-0.58,1.93-0.9,3.05c-0.33,1.12-0.65,2.42-0.98,3.88c-0.39,1.73-0.73,3.46-1.03,5.2
		c-0.29,1.74-0.57,3.49-0.83,5.25c-0.26,1.76-0.55,3.53-0.88,5.32c-0.33,1.79-0.72,3.6-1.17,5.42c-0.16,0.65-0.45,1.23-0.85,1.73
		c-0.41,0.5-0.87,0.94-1.39,1.29c-0.52,0.36-1.07,0.63-1.66,0.83s-1.14,0.29-1.66,0.29c-0.52,0-1.02-0.04-1.49-0.12
		c-0.47-0.08-0.84-0.27-1.1-0.56c-0.39-0.42-0.7-0.9-0.93-1.42c-0.23-0.52-0.34-1.07-0.34-1.66c0-0.16,0.01-0.32,0.02-0.46
		c0.02-0.15,0.04-0.3,0.07-0.46L106.96,291.1z"/>
	<path class="st1" d="M163.7,279.04c-1.14,0-2.36,0.27-3.66,0.81c-1.3,0.54-2.65,1.26-4.05,2.17c-1.4,0.91-2.82,1.95-4.27,3.1
		c-1.45,1.16-2.87,2.35-4.27,3.59c-0.72,0.62-1.4,1.18-2.05,1.68c-0.65,0.5-1.3,0.89-1.95,1.15c-0.46,0.75-0.94,1.73-1.44,2.95
		c-0.5,1.22-1,2.56-1.49,4c-0.49,1.45-0.95,2.93-1.39,4.44s-0.81,2.92-1.1,4.22c-0.16,0.68-0.29,1.35-0.39,2
		c-0.1,0.65-0.21,1.34-0.34,2.08c-0.13,0.73-0.29,1.52-0.46,2.37c-0.18,0.85-0.4,1.79-0.66,2.83c-0.16,0.62-0.42,1.12-0.78,1.49
		c-0.36,0.37-0.73,0.66-1.12,0.85s-0.77,0.32-1.12,0.37c-0.36,0.05-0.63,0.07-0.83,0.07c-1.24,0-2.25-0.29-3.03-0.88
		s-1.17-1.73-1.17-3.42c0-0.46,0.02-0.94,0.05-1.44c0.03-0.5,0.13-1.07,0.29-1.68c0.72-3.09,1.41-5.88,2.08-8.35
		c0.67-2.47,1.34-4.77,2.03-6.88c0.68-2.12,1.38-4.11,2.08-5.98c0.7-1.87,1.42-3.76,2.15-5.66s1.5-3.87,2.29-5.91
		c0.8-2.03,1.65-4.29,2.56-6.76c0.2-0.55,0.71-1.02,1.54-1.39c0.83-0.37,1.72-0.56,2.66-0.56c1.24,0,2.25,0.28,3.05,0.83
		c0.8,0.55,1.2,1.35,1.2,2.39c0,0.1-0.03,0.28-0.1,0.54c-0.07,0.26-0.16,0.54-0.29,0.83l-2.15,5.08c1.37-1.07,2.79-2.15,4.27-3.22
		c1.48-1.07,3-2.04,4.57-2.91c1.56-0.86,3.13-1.56,4.71-2.1c1.58-0.54,3.13-0.81,4.66-0.81c3.13,0,5.57,0.84,7.32,2.51
		c1.76,1.68,2.64,4.27,2.64,7.79c0,2.02-0.35,4.31-1.05,6.88c-0.7,2.57-1.58,5.33-2.64,8.28c-1.06,2.95-2.2,6.04-3.42,9.28
		c-1.22,3.24-2.35,6.54-3.39,9.89c-0.29,0.91-0.59,1.68-0.9,2.29c-0.31,0.62-0.68,1.12-1.1,1.49c-0.42,0.37-0.92,0.64-1.49,0.81
		c-0.57,0.16-1.26,0.24-2.08,0.24c-1.27,0-2.15-0.24-2.64-0.71c-0.49-0.47-0.73-1.23-0.73-2.27c0-0.91,0.14-2.03,0.42-3.34
		c0.28-1.32,0.67-2.77,1.17-4.35c0.5-1.58,1.09-3.26,1.76-5.05c0.67-1.79,1.39-3.61,2.17-5.47c0.62-1.5,1.23-2.99,1.83-4.49
		c0.6-1.5,1.14-2.95,1.61-4.35c0.47-1.4,0.85-2.73,1.15-4s0.44-2.44,0.44-3.52c0-1.01-0.22-1.9-0.66-2.66
		C165.73,279.42,164.9,279.04,163.7,279.04z"/>
	<path class="st1" d="M191.24,303.94c0-2.73,0.31-5.57,0.93-8.52c0.62-2.95,1.27-5.77,1.95-8.47c-0.85-0.03-1.71-0.16-2.59-0.39
		c-0.88-0.23-1.68-0.54-2.39-0.93c-0.72-0.39-1.3-0.87-1.76-1.44c-0.46-0.57-0.68-1.23-0.68-1.98c0-0.29,0.06-0.67,0.2-1.12
		c0.13-0.46,0.32-0.9,0.56-1.34s0.56-0.81,0.95-1.12c0.39-0.31,0.83-0.46,1.32-0.46h6.54c0.62,0,1.04-0.27,1.27-0.81
		c0.23-0.54,0.41-1.07,0.54-1.59c0.42-1.89,0.82-3.52,1.2-4.91c0.37-1.38,0.69-2.56,0.95-3.52c0.26-0.96,0.46-1.74,0.61-2.34
		c0.15-0.6,0.22-1.08,0.22-1.44c0-0.42-0.02-0.83-0.05-1.22c-0.03-0.39-0.05-0.93-0.05-1.61v-0.49c0-0.26,0.02-0.6,0.07-1.03
		c0.05-0.42,0.2-1.03,0.46-1.81c0.2-0.62,0.55-1.2,1.07-1.76c0.52-0.55,1.29-0.83,2.29-0.83c0.88,0,1.63,0.18,2.25,0.54
		c0.62,0.36,1.12,0.83,1.51,1.42s0.68,1.25,0.88,2c0.2,0.75,0.29,1.5,0.29,2.25c0,0.81-0.08,1.55-0.24,2.2l-3.56,13.67
		c1.76-0.29,3.32-0.57,4.69-0.83c1.37-0.26,2.73-0.52,4.1-0.78c1.5-0.29,2.79-0.57,3.88-0.83c1.09-0.26,2.03-0.48,2.81-0.66
		c0.78-0.18,1.44-0.33,1.98-0.44c0.54-0.11,0.98-0.17,1.34-0.17c0.52,0,1.05,0.04,1.59,0.12c0.54,0.08,1.01,0.22,1.42,0.42
		c0.41,0.2,0.74,0.47,1,0.83c0.26,0.36,0.39,0.83,0.39,1.42c0,0.78-0.15,1.47-0.46,2.08c-0.31,0.6-0.71,1.12-1.2,1.56
		s-1.04,0.8-1.66,1.07c-0.62,0.28-1.24,0.48-1.86,0.61c-0.52,0.1-1.2,0.24-2.03,0.44s-1.74,0.41-2.73,0.63
		c-0.99,0.23-2.03,0.47-3.1,0.73c-1.07,0.26-2.12,0.52-3.13,0.78c-1.5,0.39-2.78,0.72-3.83,0.98c-1.06,0.26-1.96,0.46-2.71,0.59
		c-0.75,0.13-1.36,0.23-1.83,0.29c-0.47,0.07-0.85,0.1-1.15,0.1c-0.62,1.86-1.16,3.68-1.61,5.47c-0.46,1.79-0.84,3.46-1.15,5
		c-0.31,1.55-0.54,2.93-0.68,4.15s-0.22,2.17-0.22,2.86c0,0.88,0.08,1.72,0.24,2.51c0.16,0.8,0.44,1.49,0.83,2.08
		s0.92,1.05,1.59,1.39c0.67,0.34,1.51,0.51,2.51,0.51c1.73,0,3.42-0.47,5.08-1.42c1.66-0.94,3.25-2.14,4.76-3.59
		c1.51-1.45,2.95-3.04,4.3-4.76c1.35-1.73,2.6-3.37,3.74-4.93c0.39-0.59,0.9-0.88,1.51-0.88c0.2,0,0.43,0.03,0.71,0.1
		c0.28,0.07,0.54,0.18,0.81,0.34c0.26,0.16,0.48,0.37,0.66,0.63c0.18,0.26,0.27,0.57,0.27,0.93c0,0.26-0.02,0.46-0.05,0.59
		c-0.52,2.02-1.33,4.04-2.42,6.08c-1.09,2.03-2.21,4.08-3.34,6.13c-0.39,0.72-0.9,1.42-1.54,2.1s-1.33,1.34-2.08,1.98
		c-0.75,0.63-1.53,1.24-2.34,1.81c-0.81,0.57-1.58,1.08-2.29,1.54c-1.24,0.78-2.59,1.32-4.05,1.61s-2.88,0.44-4.25,0.44
		c-2.12,0-4-0.38-5.64-1.15c-1.64-0.76-3.03-1.81-4.15-3.13s-1.98-2.86-2.56-4.61S191.24,305.96,191.24,303.94z"/>
	<path class="st1" d="M236.36,300.28c0-1.4,0.37-2.59,1.12-3.56c0.75-0.98,1.74-1.63,2.98-1.95c0.36-0.72,0.91-1.68,1.66-2.91
		c0.75-1.22,1.68-2.55,2.78-3.98c1.11-1.43,2.37-2.87,3.78-4.32c1.42-1.45,2.98-2.77,4.69-3.96c1.71-1.19,3.55-2.16,5.52-2.91
		c1.97-0.75,4.06-1.12,6.27-1.12c1.89,0,3.53,0.23,4.93,0.68c1.4,0.46,2.56,1.09,3.47,1.9c0.91,0.81,1.59,1.78,2.05,2.91
		c0.46,1.12,0.68,2.34,0.68,3.64c0,1.11-0.15,2.17-0.44,3.17c-0.46,1.82-1.3,3.42-2.54,4.79c-1.24,1.37-2.69,2.56-4.37,3.59
		c-1.68,1.03-3.5,1.88-5.47,2.56c-1.97,0.68-3.94,1.25-5.91,1.71c-1.97,0.46-3.87,0.81-5.69,1.05c-1.82,0.24-3.4,0.43-4.74,0.56
		c-0.29,0.59-0.55,1.33-0.76,2.22c-0.21,0.9-0.32,1.77-0.32,2.61c0,1.89,0.75,3.35,2.25,4.39c1.5,1.04,3.56,1.56,6.2,1.56
		c1.53,0,2.99-0.17,4.39-0.51c1.4-0.34,2.73-0.78,3.98-1.32c1.25-0.54,2.43-1.12,3.54-1.76c1.11-0.63,2.12-1.26,3.03-1.88
		c1.17-0.78,2.29-1.44,3.34-1.98c1.06-0.54,1.99-0.81,2.81-0.81c0.81,0,1.33,0.2,1.56,0.61c0.23,0.41,0.34,0.84,0.34,1.29
		c0,0.26-0.01,0.51-0.02,0.76c-0.02,0.24-0.04,0.45-0.07,0.61c-0.16,0.85-0.49,1.69-0.98,2.54c-0.49,0.85-1.11,1.58-1.86,2.2
		c-3.39,2.67-6.86,4.57-10.42,5.71s-7.37,1.71-11.4,1.71c-0.78,0-1.7-0.05-2.76-0.15c-1.06-0.1-2.16-0.29-3.3-0.59
		c-1.14-0.29-2.26-0.72-3.37-1.27c-1.11-0.55-2.09-1.29-2.95-2.2c-0.86-0.91-1.56-2.03-2.1-3.37c-0.54-1.33-0.81-2.95-0.81-4.83
		c0-1.53,0.21-3.24,0.63-5.13c-0.42-0.06-0.82-0.28-1.2-0.66C236.54,301.54,236.36,301,236.36,300.28z M266.92,286.75
		c0.06-0.16,0.1-0.31,0.1-0.44c0-0.13,0-0.28,0-0.44c0-0.88-0.33-1.54-0.98-1.98c-0.65-0.44-1.43-0.66-2.34-0.66
		c-1.43,0-2.84,0.37-4.22,1.12c-1.38,0.75-2.69,1.68-3.91,2.81s-2.3,2.33-3.25,3.61c-0.94,1.29-1.68,2.45-2.2,3.49
		c2.34-0.2,4.49-0.51,6.45-0.95s3.65-0.99,5.1-1.66c1.45-0.67,2.62-1.42,3.52-2.25C266.08,288.59,266.66,287.7,266.92,286.75z"/>
	<path class="st1" d="M287.43,314.1c0.42-2.28,0.91-4.79,1.46-7.52c0.55-2.73,1.12-5.5,1.71-8.3c0.59-2.8,1.16-5.55,1.71-8.25
		c0.55-2.7,1.03-5.18,1.42-7.42c-0.03-0.33-0.05-0.61-0.05-0.85s0-0.51,0-0.81c0-1.01,0.06-2.02,0.2-3.03
		c0.13-1.01,0.31-1.94,0.54-2.78c0.36-1.24,0.76-2.08,1.2-2.51s1.15-0.66,2.12-0.66c0.94,0,1.7,0.19,2.27,0.56
		c0.57,0.37,1.02,0.87,1.34,1.49c0.33,0.62,0.54,1.33,0.63,2.12c0.1,0.8,0.15,1.62,0.15,2.47c0,0.46-0.02,0.96-0.05,1.51
		c-0.03,0.55-0.05,0.99-0.05,1.32c0.91-0.94,1.88-1.91,2.91-2.91c1.03-0.99,2.12-1.89,3.27-2.69c1.16-0.8,2.38-1.46,3.66-1.98
		c1.29-0.52,2.63-0.78,4.03-0.78c0.55,0,1.1,0.05,1.64,0.15s1.08,0.23,1.64,0.39c0.65,0.16,1.33,0.38,2.03,0.66
		c0.7,0.28,1.38,0.66,2.03,1.15c1.07,0.81,1.98,1.83,2.71,3.05s1.1,2.47,1.1,3.74c0,0.49-0.1,1.02-0.29,1.59
		c-0.2,0.57-0.46,1.09-0.81,1.56c-0.34,0.47-0.74,0.86-1.2,1.17c-0.46,0.31-0.96,0.46-1.51,0.46c-0.55,0-1.23-0.14-2.03-0.42
		c-0.8-0.28-1.46-0.64-1.98-1.1c-0.23-0.2-0.46-0.47-0.71-0.83c-0.24-0.36-0.47-0.72-0.68-1.07c-0.21-0.36-0.41-0.69-0.59-1
		c-0.18-0.31-0.32-0.51-0.42-0.61c-0.16-0.03-0.34-0.06-0.54-0.07c-0.2-0.02-0.37-0.02-0.54-0.02c-1.66,0-3.24,0.42-4.74,1.27
		c-1.5,0.85-2.9,1.88-4.2,3.1c-1.3,1.22-2.5,2.52-3.59,3.91c-1.09,1.38-2.04,2.63-2.86,3.74c-0.65,2.64-1.38,5.44-2.17,8.42
		c-0.8,2.98-1.59,6.1-2.37,9.35v1.22c0,0.98-0.03,1.97-0.1,2.98c-0.07,1.01-0.26,1.9-0.59,2.69c-0.36,0.49-0.87,0.9-1.54,1.25
		c-0.67,0.34-1.44,0.51-2.32,0.51c-1.37,0-2.39-0.45-3.08-1.34s-1.03-1.94-1.03-3.15C287.19,315.25,287.27,314.68,287.43,314.1z"/>
	<path class="st1" d="M344.71,321.08c-0.16,0.03-0.3,0.06-0.42,0.07c-0.11,0.02-0.24,0.02-0.37,0.02c-0.68,0-1.29-0.15-1.81-0.44
		c-0.52-0.29-0.97-0.66-1.34-1.1c-0.37-0.44-0.66-0.91-0.85-1.42c-0.2-0.5-0.29-0.98-0.29-1.44c-0.16-0.68-0.39-1.66-0.68-2.93
		s-0.63-2.7-1-4.3c-0.37-1.59-0.77-3.31-1.17-5.15c-0.41-1.84-0.81-3.69-1.2-5.54s-0.75-3.66-1.07-5.42
		c-0.33-1.76-0.6-3.37-0.83-4.83c-0.16-1.04-0.34-2.02-0.54-2.93c-0.2-0.91-0.37-1.78-0.54-2.61c-0.16-0.83-0.3-1.64-0.42-2.44
		c-0.11-0.8-0.17-1.6-0.17-2.42c0-0.91,0.1-1.78,0.29-2.61s0.48-1.56,0.85-2.2c0.37-0.63,0.83-1.15,1.37-1.54s1.13-0.59,1.78-0.59
		c1.3,0,2.34,0.32,3.1,0.95c0.76,0.63,1.36,1.48,1.78,2.54c0.42,1.06,0.72,2.29,0.9,3.69c0.18,1.4,0.32,2.85,0.42,4.35
		c0.13,1.89,0.34,3.93,0.63,6.13s0.62,4.39,0.98,6.59c0.36,2.2,0.72,4.31,1.1,6.35c0.37,2.03,0.71,3.83,1,5.4
		c0.98-1.01,2.69-3.25,5.13-6.74c1.2-1.69,2.32-3.25,3.34-4.69c1.03-1.43,1.99-2.81,2.91-4.13c0.91-1.32,1.77-2.63,2.59-3.93
		c0.81-1.3,1.6-2.65,2.37-4.05c0.76-1.4,1.51-2.89,2.25-4.47c0.73-1.58,1.47-3.33,2.22-5.25c0.23-0.39,0.5-0.81,0.83-1.25
		c0.33-0.44,0.71-0.83,1.15-1.17s0.94-0.63,1.51-0.85c0.57-0.23,1.21-0.34,1.93-0.34c1.5,0,2.51,0.37,3.05,1.12
		c0.54,0.75,0.81,1.69,0.81,2.83c0,1.53-0.27,3.02-0.81,4.47c-0.54,1.45-1.39,3-2.56,4.66l-22.9,32.32
		c-0.46,0.98-0.93,1.79-1.42,2.44c-0.49,0.65-0.97,1.17-1.44,1.56c-0.47,0.39-0.92,0.68-1.34,0.88
		C345.4,320.89,345.03,321.02,344.71,321.08z"/>
	<path class="st1" d="M377.27,300.28c0-1.4,0.37-2.59,1.12-3.56c0.75-0.98,1.74-1.63,2.98-1.95c0.36-0.72,0.91-1.68,1.66-2.91
		c0.75-1.22,1.68-2.55,2.78-3.98c1.11-1.43,2.37-2.87,3.78-4.32c1.42-1.45,2.98-2.77,4.69-3.96c1.71-1.19,3.55-2.16,5.52-2.91
		c1.97-0.75,4.06-1.12,6.27-1.12c1.89,0,3.53,0.23,4.93,0.68c1.4,0.46,2.56,1.09,3.47,1.9c0.91,0.81,1.59,1.78,2.05,2.91
		c0.46,1.12,0.68,2.34,0.68,3.64c0,1.11-0.15,2.17-0.44,3.17c-0.46,1.82-1.3,3.42-2.54,4.79c-1.24,1.37-2.69,2.56-4.37,3.59
		c-1.68,1.03-3.5,1.88-5.47,2.56c-1.97,0.68-3.94,1.25-5.91,1.71c-1.97,0.46-3.87,0.81-5.69,1.05c-1.82,0.24-3.4,0.43-4.74,0.56
		c-0.29,0.59-0.55,1.33-0.76,2.22c-0.21,0.9-0.32,1.77-0.32,2.61c0,1.89,0.75,3.35,2.25,4.39c1.5,1.04,3.56,1.56,6.2,1.56
		c1.53,0,2.99-0.17,4.39-0.51c1.4-0.34,2.73-0.78,3.98-1.32c1.25-0.54,2.43-1.12,3.54-1.76c1.11-0.63,2.12-1.26,3.03-1.88
		c1.17-0.78,2.29-1.44,3.34-1.98c1.06-0.54,1.99-0.81,2.81-0.81c0.81,0,1.33,0.2,1.56,0.61c0.23,0.41,0.34,0.84,0.34,1.29
		c0,0.26-0.01,0.51-0.02,0.76c-0.02,0.24-0.04,0.45-0.07,0.61c-0.16,0.85-0.49,1.69-0.98,2.54c-0.49,0.85-1.11,1.58-1.86,2.2
		c-3.39,2.67-6.86,4.57-10.42,5.71s-7.37,1.71-11.4,1.71c-0.78,0-1.7-0.05-2.76-0.15c-1.06-0.1-2.16-0.29-3.3-0.59
		c-1.14-0.29-2.26-0.72-3.37-1.27c-1.11-0.55-2.09-1.29-2.95-2.2c-0.86-0.91-1.56-2.03-2.1-3.37c-0.54-1.33-0.81-2.95-0.81-4.83
		c0-1.53,0.21-3.24,0.63-5.13c-0.42-0.06-0.82-0.28-1.2-0.66C377.46,301.54,377.27,301,377.27,300.28z M407.84,286.75
		c0.06-0.16,0.1-0.31,0.1-0.44c0-0.13,0-0.28,0-0.44c0-0.88-0.33-1.54-0.98-1.98c-0.65-0.44-1.43-0.66-2.34-0.66
		c-1.43,0-2.84,0.37-4.22,1.12c-1.38,0.75-2.69,1.68-3.91,2.81s-2.3,2.33-3.25,3.61c-0.94,1.29-1.68,2.45-2.2,3.49
		c2.34-0.2,4.49-0.51,6.45-0.95s3.65-0.99,5.1-1.66c1.45-0.67,2.62-1.42,3.52-2.25C407,288.59,407.58,287.7,407.84,286.75z"/>
	<path class="st1" d="M462.04,279.04c-1.14,0-2.36,0.27-3.66,0.81c-1.3,0.54-2.65,1.26-4.05,2.17c-1.4,0.91-2.82,1.95-4.27,3.1
		c-1.45,1.16-2.87,2.35-4.27,3.59c-0.72,0.62-1.4,1.18-2.05,1.68c-0.65,0.5-1.3,0.89-1.95,1.15c-0.46,0.75-0.94,1.73-1.44,2.95
		c-0.5,1.22-1,2.56-1.49,4c-0.49,1.45-0.95,2.93-1.39,4.44s-0.81,2.92-1.1,4.22c-0.16,0.68-0.29,1.35-0.39,2
		c-0.1,0.65-0.21,1.34-0.34,2.08c-0.13,0.73-0.29,1.52-0.46,2.37c-0.18,0.85-0.4,1.79-0.66,2.83c-0.16,0.62-0.42,1.12-0.78,1.49
		c-0.36,0.37-0.73,0.66-1.12,0.85s-0.77,0.32-1.12,0.37c-0.36,0.05-0.63,0.07-0.83,0.07c-1.24,0-2.25-0.29-3.03-0.88
		s-1.17-1.73-1.17-3.42c0-0.46,0.02-0.94,0.05-1.44c0.03-0.5,0.13-1.07,0.29-1.68c0.72-3.09,1.41-5.88,2.08-8.35
		c0.67-2.47,1.34-4.77,2.03-6.88c0.68-2.12,1.38-4.11,2.08-5.98c0.7-1.87,1.42-3.76,2.15-5.66s1.5-3.87,2.29-5.91
		c0.8-2.03,1.65-4.29,2.56-6.76c0.2-0.55,0.71-1.02,1.54-1.39c0.83-0.37,1.72-0.56,2.66-0.56c1.24,0,2.25,0.28,3.05,0.83
		c0.8,0.55,1.2,1.35,1.2,2.39c0,0.1-0.03,0.28-0.1,0.54c-0.07,0.26-0.16,0.54-0.29,0.83l-2.15,5.08c1.37-1.07,2.79-2.15,4.27-3.22
		c1.48-1.07,3-2.04,4.57-2.91c1.56-0.86,3.13-1.56,4.71-2.1c1.58-0.54,3.13-0.81,4.66-0.81c3.13,0,5.57,0.84,7.32,2.51
		c1.76,1.68,2.64,4.27,2.64,7.79c0,2.02-0.35,4.31-1.05,6.88c-0.7,2.57-1.58,5.33-2.64,8.28c-1.06,2.95-2.2,6.04-3.42,9.28
		c-1.22,3.24-2.35,6.54-3.39,9.89c-0.29,0.91-0.59,1.68-0.9,2.29c-0.31,0.62-0.68,1.12-1.1,1.49c-0.42,0.37-0.92,0.64-1.49,0.81
		c-0.57,0.16-1.26,0.24-2.08,0.24c-1.27,0-2.15-0.24-2.64-0.71c-0.49-0.47-0.73-1.23-0.73-2.27c0-0.91,0.14-2.03,0.42-3.34
		c0.28-1.32,0.67-2.77,1.17-4.35c0.5-1.58,1.09-3.26,1.76-5.05c0.67-1.79,1.39-3.61,2.17-5.47c0.62-1.5,1.23-2.99,1.83-4.49
		c0.6-1.5,1.14-2.95,1.61-4.35c0.47-1.4,0.85-2.73,1.15-4s0.44-2.44,0.44-3.52c0-1.01-0.22-1.9-0.66-2.66
		C464.07,279.42,463.24,279.04,462.04,279.04z"/>
	<path class="st1" d="M482.74,300.04c0.62-2.51,1.54-5.13,2.76-7.86s2.69-5.38,4.42-7.93c1.73-2.56,3.69-4.92,5.88-7.08
		c2.2-2.16,4.6-3.93,7.2-5.3c0.85-0.46,1.77-0.8,2.78-1.03c1.01-0.23,2.03-0.34,3.08-0.34c1.07,0,2.08,0.1,3,0.29
		s1.73,0.52,2.39,0.98c0.67,0.46,1.2,1.04,1.59,1.76c0.39,0.72,0.59,1.6,0.59,2.64c0,0.78-0.11,1.57-0.34,2.37
		c-0.23,0.8-0.57,1.51-1.03,2.15c-0.46,0.63-1.03,1.15-1.71,1.54s-1.48,0.59-2.39,0.59c-0.72,0-1.38-0.13-1.98-0.39
		c-0.6-0.26-1.18-0.55-1.73-0.88c-0.29-0.2-0.57-0.37-0.83-0.51c-0.26-0.15-0.57-0.28-0.93-0.42c-1.3,0.59-2.53,1.36-3.69,2.32
		c-1.16,0.96-2.23,2.03-3.22,3.2c-0.99,1.17-1.9,2.43-2.73,3.76c-0.83,1.33-1.58,2.67-2.25,4c-0.67,1.33-1.24,2.65-1.71,3.93
		c-0.47,1.29-0.85,2.47-1.15,3.54c-0.23,0.78-0.43,1.67-0.61,2.66c-0.18,0.99-0.27,1.96-0.27,2.91c0,0.65,0.06,1.27,0.17,1.86
		c0.11,0.59,0.32,1.11,0.61,1.56c0.29,0.46,0.68,0.81,1.17,1.07c0.49,0.26,1.09,0.39,1.81,0.39c1.14,0,2.27-0.15,3.39-0.44
		s2.22-0.67,3.3-1.12c1.07-0.46,2.12-0.98,3.15-1.59c1.03-0.6,2.03-1.21,3-1.83c0.62-0.39,1.24-0.8,1.86-1.22
		c0.62-0.42,1.2-0.8,1.76-1.12c0.55-0.33,1.07-0.59,1.54-0.81c0.47-0.21,0.89-0.32,1.25-0.32c0.49,0,0.94,0.12,1.37,0.37
		c0.42,0.24,0.63,0.66,0.63,1.25c0,0.42-0.1,0.9-0.29,1.42c-0.46,1.27-1.07,2.41-1.86,3.42c-0.78,1.01-1.65,1.91-2.61,2.71
		c-0.96,0.8-1.99,1.51-3.08,2.12c-1.09,0.62-2.17,1.19-3.25,1.71c-2.02,1.07-4.06,1.88-6.13,2.42c-2.07,0.54-3.8,0.81-5.2,0.81
		c-0.46,0-0.99-0.05-1.61-0.15c-0.62-0.1-1.16-0.24-1.61-0.44c-2.64-1.14-4.56-2.67-5.76-4.59c-1.2-1.92-1.81-4.2-1.81-6.84
		c0-1.14,0.09-2.34,0.27-3.59C482.12,302.71,482.38,301.4,482.74,300.04z"/>
	<path class="st1" d="M524.98,310.19c0.49-1.89,1.07-4.08,1.76-6.59c0.68-2.51,1.41-5.16,2.17-7.96c0.76-2.8,1.54-5.66,2.32-8.59
		s1.51-5.78,2.2-8.54c0.03-0.13,0.15-0.35,0.34-0.66c0.2-0.31,0.47-0.62,0.83-0.93c0.36-0.31,0.81-0.58,1.37-0.81
		c0.55-0.23,1.2-0.34,1.95-0.34c0.55,0,1.09,0.06,1.61,0.17c0.52,0.11,0.98,0.29,1.39,0.51c0.41,0.23,0.73,0.53,0.98,0.9
		c0.24,0.37,0.37,0.81,0.37,1.29c0,0.1,0,0.2,0,0.32c0,0.11-0.02,0.22-0.05,0.32l-1.37,5.18c-1.53,5.79-3.08,11.6-4.66,17.43
		c-1.58,5.83-3.12,11.67-4.61,17.53c-0.07,0.2-0.16,0.44-0.29,0.73c-0.13,0.29-0.31,0.59-0.54,0.88c-0.23,0.29-0.5,0.54-0.83,0.73
		c-0.33,0.2-0.72,0.29-1.17,0.29c-0.85,0-1.6-0.17-2.25-0.51c-0.65-0.34-1.2-0.77-1.66-1.29c-0.46-0.52-0.8-1.09-1.03-1.71
		c-0.23-0.62-0.34-1.2-0.34-1.76c0-0.16,0-0.31,0-0.44c0-0.13,0.03-0.28,0.1-0.44L524.98,310.19z M537.72,259.65
		c0.16-0.68,0.46-1.51,0.88-2.49c0.42-0.98,1.17-1.86,2.25-2.64c0.52-0.29,1.16-0.56,1.9-0.81c0.75-0.24,1.29-0.37,1.61-0.37
		c0.33,0,0.66,0.11,1,0.34c0.34,0.23,0.64,0.47,0.9,0.73c0.33,0.33,0.63,0.68,0.93,1.07c0.81,0.07,1.34,0.36,1.59,0.88
		c0.24,0.52,0.37,1.14,0.37,1.86c0,0.52-0.05,0.99-0.15,1.42c-0.1,0.42-0.18,0.77-0.24,1.03c-0.2,0.68-0.57,1.31-1.12,1.88
		c-0.55,0.57-1.19,1.06-1.9,1.46c-0.72,0.41-1.46,0.72-2.25,0.95c-0.78,0.23-1.46,0.34-2.05,0.34c-0.75,0-1.33-0.13-1.73-0.39
		c-0.41-0.26-0.92-0.81-1.54-1.66c-0.36-0.49-0.56-0.87-0.61-1.15c-0.05-0.28-0.07-0.51-0.07-0.71c0-0.36,0.02-0.68,0.07-0.95
		C537.6,260.18,537.66,259.92,537.72,259.65z"/>
	<path class="st1" d="M550.86,300.43c0.49-1.99,1.25-4.09,2.27-6.32c1.03-2.23,2.37-4.48,4.03-6.76c1.66-2.28,3.65-4.51,5.98-6.69
		c2.33-2.18,5.02-4.22,8.08-6.1c0.49-0.29,1.24-0.61,2.25-0.95c1.01-0.34,2.05-0.54,3.13-0.61c1.27-1.37,2.98-2.05,5.13-2.05
		c2.54,0,4.68,0.64,6.42,1.93c1.74,1.29,3.18,3.04,4.32,5.25c0.36,0.72,0.69,1.42,1,2.1c0.31,0.68,0.57,1.41,0.78,2.17
		c0.21,0.77,0.38,1.59,0.51,2.47c0.13,0.88,0.2,1.87,0.2,2.98c0,2.57-0.41,5.19-1.22,7.86c-0.81,2.67-1.97,5.27-3.47,7.81
		c-1.5,2.54-3.31,4.97-5.44,7.3c-2.13,2.33-4.5,4.42-7.1,6.27c-1.76,1.27-3.7,2.25-5.83,2.95c-2.13,0.7-4.52,1.05-7.15,1.05
		c-2.51,0-4.68-0.33-6.52-1c-1.84-0.67-3.37-1.62-4.59-2.86c-1.22-1.24-2.13-2.72-2.73-4.44c-0.6-1.73-0.9-3.65-0.9-5.76
		C549.98,304.97,550.27,302.77,550.86,300.43z M558.96,301.06c-0.2,0.75-0.33,1.46-0.42,2.12c-0.08,0.67-0.12,1.31-0.12,1.93
		c0,1.07,0.14,2.08,0.42,3c0.28,0.93,0.72,1.73,1.34,2.39c0.62,0.67,1.39,1.19,2.32,1.56c0.93,0.37,2.06,0.56,3.39,0.56
		c2.47,0,4.78-0.63,6.91-1.88c2.13-1.25,4.03-2.82,5.69-4.71c1.66-1.89,3.05-3.91,4.17-6.08c1.12-2.16,1.91-4.16,2.37-5.98
		c0.29-1.14,0.54-2.21,0.76-3.22c0.21-1.01,0.32-1.94,0.32-2.78c0-0.85-0.15-1.64-0.46-2.37c-0.31-0.73-0.71-1.55-1.2-2.47
		c-0.29-0.55-0.59-1.13-0.88-1.73c-0.29-0.6-0.55-1.2-0.78-1.78c-0.26,0.46-0.54,0.85-0.83,1.2s-0.73,0.65-1.32,0.93
		c-0.59,0.28-1.38,0.53-2.39,0.76c-1.01,0.23-2.33,0.42-3.96,0.59c-1.07,0.36-2.17,0.91-3.27,1.66c-1.11,0.75-2.19,1.63-3.25,2.64
		c-1.06,1.01-2.07,2.1-3.03,3.27c-0.96,1.17-1.82,2.37-2.59,3.59c-0.77,1.22-1.43,2.42-2,3.59
		C559.59,299.01,559.19,300.08,558.96,301.06z"/>
	<path class="st1" d="M637.92,279.04c-1.14,0-2.36,0.27-3.66,0.81c-1.3,0.54-2.65,1.26-4.05,2.17c-1.4,0.91-2.82,1.95-4.27,3.1
		c-1.45,1.16-2.87,2.35-4.27,3.59c-0.72,0.62-1.4,1.18-2.05,1.68c-0.65,0.5-1.3,0.89-1.95,1.15c-0.46,0.75-0.94,1.73-1.44,2.95
		c-0.5,1.22-1,2.56-1.49,4c-0.49,1.45-0.95,2.93-1.39,4.44s-0.81,2.92-1.1,4.22c-0.16,0.68-0.29,1.35-0.39,2
		c-0.1,0.65-0.21,1.34-0.34,2.08c-0.13,0.73-0.29,1.52-0.46,2.37c-0.18,0.85-0.4,1.79-0.66,2.83c-0.16,0.62-0.42,1.12-0.78,1.49
		c-0.36,0.37-0.73,0.66-1.12,0.85s-0.77,0.32-1.12,0.37c-0.36,0.05-0.63,0.07-0.83,0.07c-1.24,0-2.25-0.29-3.03-0.88
		s-1.17-1.73-1.17-3.42c0-0.46,0.02-0.94,0.05-1.44c0.03-0.5,0.13-1.07,0.29-1.68c0.72-3.09,1.41-5.88,2.08-8.35
		c0.67-2.47,1.34-4.77,2.03-6.88c0.68-2.12,1.38-4.11,2.08-5.98c0.7-1.87,1.42-3.76,2.15-5.66s1.5-3.87,2.29-5.91
		c0.8-2.03,1.65-4.29,2.56-6.76c0.2-0.55,0.71-1.02,1.54-1.39c0.83-0.37,1.72-0.56,2.66-0.56c1.24,0,2.25,0.28,3.05,0.83
		c0.8,0.55,1.2,1.35,1.2,2.39c0,0.1-0.03,0.28-0.1,0.54c-0.07,0.26-0.16,0.54-0.29,0.83l-2.15,5.08c1.37-1.07,2.79-2.15,4.27-3.22
		c1.48-1.07,3-2.04,4.57-2.91c1.56-0.86,3.13-1.56,4.71-2.1c1.58-0.54,3.13-0.81,4.66-0.81c3.13,0,5.57,0.84,7.32,2.51
		c1.76,1.68,2.64,4.27,2.64,7.79c0,2.02-0.35,4.31-1.05,6.88c-0.7,2.57-1.58,5.33-2.64,8.28c-1.06,2.95-2.2,6.04-3.42,9.28
		c-1.22,3.24-2.35,6.54-3.39,9.89c-0.29,0.91-0.59,1.68-0.9,2.29c-0.31,0.62-0.68,1.12-1.1,1.49c-0.42,0.37-0.92,0.64-1.49,0.81
		c-0.57,0.16-1.26,0.24-2.08,0.24c-1.27,0-2.15-0.24-2.64-0.71c-0.49-0.47-0.73-1.23-0.73-2.27c0-0.91,0.14-2.03,0.42-3.34
		c0.28-1.32,0.67-2.77,1.17-4.35c0.5-1.58,1.09-3.26,1.76-5.05c0.67-1.79,1.39-3.61,2.17-5.47c0.62-1.5,1.23-2.99,1.83-4.49
		c0.6-1.5,1.14-2.95,1.61-4.35c0.47-1.4,0.85-2.73,1.15-4s0.44-2.44,0.44-3.52c0-1.01-0.22-1.9-0.66-2.66
		C639.94,279.42,639.12,279.04,637.92,279.04z"/>
	<path class="st1" d="M657.79,300.28c0-1.4,0.37-2.59,1.12-3.56c0.75-0.98,1.74-1.63,2.98-1.95c0.36-0.72,0.91-1.68,1.66-2.91
		c0.75-1.22,1.68-2.55,2.78-3.98c1.11-1.43,2.37-2.87,3.78-4.32c1.42-1.45,2.98-2.77,4.69-3.96c1.71-1.19,3.55-2.16,5.52-2.91
		c1.97-0.75,4.06-1.12,6.27-1.12c1.89,0,3.53,0.23,4.93,0.68c1.4,0.46,2.56,1.09,3.47,1.9c0.91,0.81,1.59,1.78,2.05,2.91
		c0.46,1.12,0.68,2.34,0.68,3.64c0,1.11-0.15,2.17-0.44,3.17c-0.46,1.82-1.3,3.42-2.54,4.79c-1.24,1.37-2.69,2.56-4.37,3.59
		c-1.68,1.03-3.5,1.88-5.47,2.56c-1.97,0.68-3.94,1.25-5.91,1.71c-1.97,0.46-3.87,0.81-5.69,1.05c-1.82,0.24-3.4,0.43-4.74,0.56
		c-0.29,0.59-0.55,1.33-0.76,2.22c-0.21,0.9-0.32,1.77-0.32,2.61c0,1.89,0.75,3.35,2.25,4.39c1.5,1.04,3.56,1.56,6.2,1.56
		c1.53,0,2.99-0.17,4.39-0.51c1.4-0.34,2.73-0.78,3.98-1.32c1.25-0.54,2.43-1.12,3.54-1.76c1.11-0.63,2.12-1.26,3.03-1.88
		c1.17-0.78,2.29-1.44,3.34-1.98c1.06-0.54,1.99-0.81,2.81-0.81c0.81,0,1.33,0.2,1.56,0.61c0.23,0.41,0.34,0.84,0.34,1.29
		c0,0.26-0.01,0.51-0.02,0.76c-0.02,0.24-0.04,0.45-0.07,0.61c-0.16,0.85-0.49,1.69-0.98,2.54c-0.49,0.85-1.11,1.58-1.86,2.2
		c-3.39,2.67-6.86,4.57-10.42,5.71s-7.37,1.71-11.4,1.71c-0.78,0-1.7-0.05-2.76-0.15c-1.06-0.1-2.16-0.29-3.3-0.59
		c-1.14-0.29-2.26-0.72-3.37-1.27c-1.11-0.55-2.09-1.29-2.95-2.2c-0.86-0.91-1.56-2.03-2.1-3.37c-0.54-1.33-0.81-2.95-0.81-4.83
		c0-1.53,0.21-3.24,0.63-5.13c-0.42-0.06-0.82-0.28-1.2-0.66C657.98,301.54,657.79,301,657.79,300.28z M688.36,286.75
		c0.06-0.16,0.1-0.31,0.1-0.44c0-0.13,0-0.28,0-0.44c0-0.88-0.33-1.54-0.98-1.98c-0.65-0.44-1.43-0.66-2.34-0.66
		c-1.43,0-2.84,0.37-4.22,1.12c-1.38,0.75-2.69,1.68-3.91,2.81s-2.3,2.33-3.25,3.61c-0.94,1.29-1.68,2.45-2.2,3.49
		c2.34-0.2,4.49-0.51,6.45-0.95s3.65-0.99,5.1-1.66c1.45-0.67,2.62-1.42,3.52-2.25C687.52,288.59,688.1,287.7,688.36,286.75z"/>
	<path class="st1" d="M709.06,310.48c0.26,0,0.5,0.03,0.71,0.1c0.21,0.07,0.45,0.14,0.71,0.22c0.26,0.08,0.55,0.15,0.88,0.22
		c0.33,0.07,0.75,0.1,1.27,0.1c1.53,0,3.23-0.16,5.1-0.49c1.87-0.33,3.64-0.75,5.3-1.27c1.66-0.52,3.08-1.11,4.27-1.78
		c1.19-0.67,1.86-1.36,2.03-2.08c0.1-0.39,0.15-0.73,0.15-1.03c0-0.55-0.27-1.08-0.81-1.59c-0.54-0.5-1.21-0.98-2.03-1.44
		c-0.81-0.46-1.69-0.88-2.64-1.27c-0.94-0.39-1.82-0.75-2.64-1.07l-1.66-0.68c-0.85-0.33-1.68-0.72-2.49-1.2
		c-0.81-0.47-1.57-1.02-2.27-1.64c-0.7-0.62-1.32-1.34-1.86-2.17s-0.94-1.78-1.2-2.86c-0.13-0.46-0.24-0.91-0.32-1.37
		c-0.08-0.46-0.12-0.94-0.12-1.46c0-0.85,0.28-1.81,0.85-2.91c0.57-1.09,1.33-2.17,2.29-3.25c0.96-1.07,2.05-2.1,3.27-3.08
		s2.5-1.79,3.83-2.44c0.98-0.68,1.92-1.3,2.83-1.86c0.91-0.55,1.83-1.03,2.76-1.42s1.87-0.7,2.83-0.93
		c0.96-0.23,1.98-0.34,3.05-0.34c0.98,0,2.03,0.05,3.17,0.15c1.14,0.1,2.18,0.33,3.13,0.68c0.94,0.36,1.73,0.89,2.37,1.59
		c0.63,0.7,0.95,1.64,0.95,2.81c0,0.36-0.05,0.83-0.15,1.42s-0.26,1.17-0.49,1.76c-0.23,0.59-0.5,1.09-0.83,1.51
		c-0.33,0.42-0.72,0.63-1.17,0.63c-0.75,0-1.37-0.15-1.86-0.44s-0.93-0.61-1.32-0.95s-0.8-0.66-1.22-0.95
		c-0.42-0.29-0.94-0.44-1.56-0.44c-0.75,0-1.62,0.14-2.61,0.42c-0.99,0.28-2.01,0.65-3.05,1.12c-1.04,0.47-2.06,1.02-3.05,1.64
		c-0.99,0.62-1.89,1.25-2.69,1.9c-0.8,0.65-1.44,1.29-1.93,1.93s-0.73,1.21-0.73,1.73c0,0.55,0.18,1.01,0.54,1.37
		c0.36,0.36,0.81,0.67,1.37,0.93c0.72,0.39,1.54,0.78,2.47,1.17s1.86,0.78,2.81,1.17c0.94,0.39,1.86,0.78,2.76,1.17
		c0.9,0.39,1.67,0.75,2.32,1.07c0.88,0.46,1.67,0.9,2.37,1.34c0.7,0.44,1.29,0.92,1.78,1.44c0.49,0.52,0.86,1.11,1.12,1.76
		c0.26,0.65,0.39,1.42,0.39,2.29c0,0.42-0.03,0.85-0.1,1.27c-0.07,0.42-0.16,0.91-0.29,1.46c-0.1,0.49-0.27,1.06-0.51,1.71
		c-0.24,0.65-0.5,1.29-0.78,1.93s-0.56,1.2-0.85,1.71c-0.29,0.5-0.54,0.84-0.73,1c-1.27,1.17-2.77,2.27-4.49,3.3
		c-1.73,1.03-3.52,1.92-5.4,2.69c-1.87,0.77-3.74,1.38-5.62,1.83c-1.87,0.46-3.59,0.68-5.15,0.68c-0.78,0-1.64-0.15-2.59-0.46
		c-0.94-0.31-1.81-0.72-2.61-1.22c-0.8-0.5-1.46-1.08-2-1.73c-0.54-0.65-0.81-1.3-0.81-1.95c0-0.33,0.1-0.69,0.29-1.1
		c0.2-0.41,0.44-0.78,0.73-1.12s0.61-0.63,0.95-0.88S708.77,310.48,709.06,310.48z"/>
	<path class="st1" d="M797.78,341.69c-0.49,0-0.93-0.13-1.32-0.39c-0.39-0.26-0.72-0.6-1-1.03c-0.28-0.42-0.5-0.89-0.66-1.39
		c-0.16-0.5-0.24-1-0.24-1.49c0-0.62,0.08-1.16,0.24-1.61c0.16-0.46,0.37-0.85,0.61-1.2s0.5-0.61,0.78-0.81
		c0.28-0.2,0.53-0.34,0.76-0.44c0.78-0.2,1.69-0.41,2.73-0.63c1.04-0.23,2.17-0.56,3.39-1s2.52-1.01,3.91-1.71
		c1.38-0.7,2.81-1.62,4.27-2.76c1.46-1.14,3-2.47,4.61-3.98s3.17-3.29,4.66-5.32c1.5-2.03,2.9-4.36,4.2-6.98
		c1.3-2.62,2.38-5.62,3.22-9.01c-0.62,0.68-1.33,1.46-2.12,2.32c-0.8,0.86-1.65,1.74-2.56,2.64c-0.91,0.9-1.86,1.76-2.83,2.59
		s-1.95,1.58-2.93,2.25c-0.98,0.67-1.93,1.2-2.86,1.59s-1.8,0.59-2.61,0.59c-2.18,0-4.04-0.5-5.57-1.49
		c-1.53-0.99-2.95-2.63-4.25-4.91c-0.36-0.65-0.63-1.5-0.83-2.54c-0.2-1.04-0.29-2.1-0.29-3.17c0-1.76,0.08-3.47,0.24-5.13
		c0.16-1.66,0.41-3.39,0.73-5.18c0.33-1.79,0.71-3.67,1.15-5.64c0.44-1.97,0.94-4.14,1.49-6.52c0.03-0.62,0.08-1.2,0.15-1.76
		c0.06-0.46,0.11-0.9,0.12-1.32c0.02-0.42,0.04-0.68,0.07-0.78c0.06-0.55,0.25-1.07,0.56-1.56c0.31-0.49,0.68-0.91,1.12-1.27
		c0.44-0.36,0.91-0.63,1.42-0.83c0.5-0.2,1-0.29,1.49-0.29c0.68,0,1.37,0.06,2.05,0.17c0.68,0.11,1.22,0.37,1.61,0.76
		c0.55,0.59,0.97,1.35,1.25,2.29c0.28,0.94,0.42,1.79,0.42,2.54c0,0.29-0.14,0.88-0.42,1.76c-0.28,0.88-0.68,1.79-1.2,2.73
		c-0.78,2.93-1.42,5.41-1.9,7.45c-0.49,2.03-0.87,3.73-1.15,5.08c-0.28,1.35-0.47,2.43-0.59,3.22c-0.11,0.8-0.17,1.41-0.17,1.83
		c0,1.76,0.29,3.16,0.88,4.2c0.59,1.04,1.3,1.56,2.15,1.56c0.49,0,1.05-0.1,1.68-0.29s1.31-0.52,2.03-0.98
		c2.73-1.69,5.09-3.54,7.06-5.54c1.97-2,3.66-4.22,5.08-6.64c1.42-2.42,2.64-5.09,3.66-7.98c1.03-2.9,1.96-6.09,2.81-9.57
		c0.06-0.23,0.22-0.46,0.46-0.68c0.24-0.23,0.54-0.42,0.88-0.59c0.34-0.16,0.71-0.3,1.1-0.42c0.39-0.11,0.76-0.17,1.12-0.17
		c1.72,0,3.05,0.46,3.98,1.39s1.39,2.17,1.39,3.74c0,0.59-0.15,1.53-0.44,2.83c-0.29,1.3-0.63,2.68-1.03,4.13
		c-0.39,1.45-0.79,2.83-1.2,4.15c-0.41,1.32-0.72,2.29-0.95,2.91l-2.34,6.79c-1.07,3.06-2.04,5.88-2.91,8.45
		c-0.86,2.57-1.78,4.97-2.76,7.2c-0.98,2.23-2.08,4.34-3.3,6.32s-2.69,3.92-4.42,5.81c-1.73,1.89-3.78,3.78-6.15,5.69
		c-2.38,1.9-5.21,3.88-8.5,5.93c-2.02,1.2-4,2.19-5.93,2.95C801.97,341.3,799.93,341.69,797.78,341.69z"/>
	<path class="st1" d="M949,300.43c0.49-1.99,1.25-4.09,2.27-6.32c1.03-2.23,2.37-4.48,4.03-6.76c1.66-2.28,3.65-4.51,5.98-6.69
		c2.33-2.18,5.02-4.22,8.08-6.1c0.49-0.29,1.24-0.61,2.25-0.95c1.01-0.34,2.05-0.54,3.13-0.61c1.27-1.37,2.98-2.05,5.13-2.05
		c2.54,0,4.68,0.64,6.42,1.93c1.74,1.29,3.18,3.04,4.32,5.25c0.36,0.72,0.69,1.42,1,2.1c0.31,0.68,0.57,1.41,0.78,2.17
		c0.21,0.77,0.38,1.59,0.51,2.47c0.13,0.88,0.2,1.87,0.2,2.98c0,2.57-0.41,5.19-1.22,7.86c-0.81,2.67-1.97,5.27-3.47,7.81
		c-1.5,2.54-3.31,4.97-5.44,7.3c-2.13,2.33-4.5,4.42-7.1,6.27c-1.76,1.27-3.7,2.25-5.83,2.95c-2.13,0.7-4.52,1.05-7.15,1.05
		c-2.51,0-4.68-0.33-6.52-1c-1.84-0.67-3.37-1.62-4.59-2.86c-1.22-1.24-2.13-2.72-2.73-4.44c-0.6-1.73-0.9-3.65-0.9-5.76
		C948.12,304.97,948.42,302.77,949,300.43z M957.11,301.06c-0.2,0.75-0.33,1.46-0.42,2.12c-0.08,0.67-0.12,1.31-0.12,1.93
		c0,1.07,0.14,2.08,0.42,3c0.28,0.93,0.72,1.73,1.34,2.39c0.62,0.67,1.39,1.19,2.32,1.56c0.93,0.37,2.06,0.56,3.39,0.56
		c2.47,0,4.78-0.63,6.91-1.88c2.13-1.25,4.03-2.82,5.69-4.71c1.66-1.89,3.05-3.91,4.17-6.08c1.12-2.16,1.91-4.16,2.37-5.98
		c0.29-1.14,0.54-2.21,0.76-3.22c0.21-1.01,0.32-1.94,0.32-2.78c0-0.85-0.16-1.64-0.46-2.37c-0.31-0.73-0.71-1.55-1.2-2.47
		c-0.29-0.55-0.59-1.13-0.88-1.73c-0.29-0.6-0.55-1.2-0.78-1.78c-0.26,0.46-0.54,0.85-0.83,1.2s-0.73,0.65-1.32,0.93
		c-0.59,0.28-1.38,0.53-2.39,0.76c-1.01,0.23-2.33,0.42-3.96,0.59c-1.07,0.36-2.17,0.91-3.27,1.66c-1.11,0.75-2.19,1.63-3.25,2.64
		c-1.06,1.01-2.07,2.1-3.03,3.27c-0.96,1.17-1.82,2.37-2.59,3.59c-0.77,1.22-1.43,2.42-2,3.59
		C957.73,299.01,957.33,300.08,957.11,301.06z"/>
	<path class="st1" d="M1025.13,317.03c0-0.94,0.11-2.08,0.34-3.39c0.23-1.32,0.34-2.95,0.34-4.91c-1.07,0.78-2.26,1.71-3.56,2.78
		c-1.3,1.07-2.65,2.1-4.05,3.08c-1.4,0.98-2.79,1.8-4.17,2.47c-1.38,0.67-2.68,1-3.88,1c-0.98,0-1.9-0.15-2.78-0.44
		s-1.63-0.68-2.25-1.17c-1.73-1.37-2.97-2.73-3.74-4.1c-0.77-1.37-1.15-2.96-1.15-4.79c0-0.81,0.07-1.66,0.22-2.54
		s0.37-1.89,0.66-3.03c1.24-5.14,3.36-9.9,6.37-14.28c3.01-4.38,6.75-8.11,11.21-11.21c1.72-1.2,3.45-1.98,5.18-2.32
		c1.72-0.34,3.43-0.51,5.13-0.51c0.75,0,1.59,0.05,2.51,0.15s1.77,0.2,2.51,0.29c0.75-0.16,1.36-0.28,1.83-0.34
		c0.47-0.06,0.97-0.1,1.49-0.1c0.98,0,1.79,0.13,2.44,0.39c0.65,0.26,1.17,0.61,1.56,1.05s0.67,0.94,0.85,1.51
		c0.18,0.57,0.27,1.16,0.27,1.78c0,0.85-0.13,1.65-0.39,2.42c-0.26,0.77-0.52,1.54-0.78,2.32l-6.45,25.73
		c-0.13,1.4-0.24,2.69-0.34,3.86s-0.29,2.26-0.59,3.27c-0.1,0.29-0.22,0.66-0.37,1.1s-0.38,0.86-0.71,1.27
		c-0.33,0.41-0.73,0.76-1.22,1.05s-1.12,0.44-1.9,0.44c-1.01,0-1.82-0.07-2.42-0.2c-0.6-0.13-1.07-0.32-1.39-0.56
		c-0.33-0.24-0.54-0.54-0.63-0.88S1025.13,317.48,1025.13,317.03z M1008.91,302.28c-0.13,0.46-0.27,1.11-0.42,1.95
		c-0.15,0.85-0.22,1.69-0.22,2.54c0,0.88,0.13,1.67,0.39,2.37c0.26,0.7,0.83,1.05,1.71,1.05c1.37,0,2.64-0.3,3.83-0.9
		c1.19-0.6,2.3-1.33,3.34-2.17c1.4-1.14,2.82-2.42,4.27-3.83c1.45-1.42,2.82-2.91,4.1-4.47c1.29-1.56,2.42-3.17,3.42-4.81
		c0.99-1.64,1.72-3.28,2.17-4.91c0.26-0.94,0.48-2.03,0.66-3.27c0.18-1.24,0.27-2.34,0.27-3.32c0-0.42-0.1-0.84-0.29-1.25
		c-0.2-0.41-0.57-0.61-1.12-0.61c-1.6,0-3.2,0.31-4.81,0.93c-1.61,0.62-3.17,1.45-4.66,2.49c-1.5,1.04-2.92,2.27-4.27,3.69
		c-1.35,1.42-2.58,2.93-3.69,4.54c-1.11,1.61-2.06,3.27-2.86,4.98C1009.95,298.99,1009.34,300.65,1008.91,302.28z"/>
	<path class="st1" d="M1050.03,300.04c0.62-2.51,1.54-5.13,2.76-7.86s2.69-5.38,4.42-7.93c1.72-2.56,3.69-4.92,5.88-7.08
		c2.2-2.16,4.6-3.93,7.2-5.3c0.85-0.46,1.77-0.8,2.78-1.03c1.01-0.23,2.03-0.34,3.08-0.34c1.07,0,2.08,0.1,3,0.29
		s1.72,0.52,2.39,0.98c0.67,0.46,1.2,1.04,1.59,1.76c0.39,0.72,0.59,1.6,0.59,2.64c0,0.78-0.11,1.57-0.34,2.37
		c-0.23,0.8-0.57,1.51-1.03,2.15c-0.46,0.63-1.03,1.15-1.71,1.54s-1.48,0.59-2.39,0.59c-0.72,0-1.38-0.13-1.98-0.39
		c-0.6-0.26-1.18-0.55-1.73-0.88c-0.29-0.2-0.57-0.37-0.83-0.51c-0.26-0.15-0.57-0.28-0.93-0.42c-1.3,0.59-2.53,1.36-3.69,2.32
		c-1.16,0.96-2.23,2.03-3.22,3.2c-0.99,1.17-1.9,2.43-2.73,3.76c-0.83,1.33-1.58,2.67-2.25,4c-0.67,1.33-1.24,2.65-1.71,3.93
		c-0.47,1.29-0.85,2.47-1.15,3.54c-0.23,0.78-0.43,1.67-0.61,2.66c-0.18,0.99-0.27,1.96-0.27,2.91c0,0.65,0.06,1.27,0.17,1.86
		c0.11,0.59,0.32,1.11,0.61,1.56c0.29,0.46,0.68,0.81,1.17,1.07c0.49,0.26,1.09,0.39,1.81,0.39c1.14,0,2.27-0.15,3.39-0.44
		s2.22-0.67,3.3-1.12c1.07-0.46,2.12-0.98,3.15-1.59c1.03-0.6,2.03-1.21,3-1.83c0.62-0.39,1.24-0.8,1.86-1.22
		c0.62-0.42,1.2-0.8,1.76-1.12c0.55-0.33,1.07-0.59,1.54-0.81c0.47-0.21,0.89-0.32,1.25-0.32c0.49,0,0.94,0.12,1.37,0.37
		c0.42,0.24,0.63,0.66,0.63,1.25c0,0.42-0.1,0.9-0.29,1.42c-0.46,1.27-1.07,2.41-1.86,3.42c-0.78,1.01-1.65,1.91-2.61,2.71
		c-0.96,0.8-1.99,1.51-3.08,2.12c-1.09,0.62-2.17,1.19-3.25,1.71c-2.02,1.07-4.06,1.88-6.13,2.42c-2.07,0.54-3.8,0.81-5.2,0.81
		c-0.46,0-0.99-0.05-1.61-0.15c-0.62-0.1-1.16-0.24-1.61-0.44c-2.64-1.14-4.56-2.67-5.76-4.59c-1.21-1.92-1.81-4.2-1.81-6.84
		c0-1.14,0.09-2.34,0.27-3.59C1049.4,302.71,1049.67,301.4,1050.03,300.04z"/>
	<path class="st1" d="M1126.05,321.91c-2.02,0-3.4-0.44-4.15-1.32c-0.75-0.88-1.12-2.08-1.12-3.61c0-0.81,0.08-1.69,0.24-2.64
		c0.16-0.94,0.37-1.92,0.63-2.93c0.46-1.73,0.97-3.44,1.54-5.15c0.57-1.71,1.14-3.43,1.71-5.18c0.57-1.74,1.12-3.48,1.66-5.22
		c0.54-1.74,1.02-3.49,1.44-5.25c0.03-0.16,0.05-0.37,0.05-0.63c0-0.46-0.11-0.81-0.34-1.07c-0.23-0.26-0.57-0.39-1.03-0.39
		c-0.72,0-1.49,0.15-2.32,0.44s-1.52,0.62-2.08,0.98c-2.18,1.46-4.09,2.91-5.74,4.35c-1.64,1.43-3.15,2.93-4.52,4.49
		s-2.66,3.23-3.88,5c-1.22,1.77-2.5,3.72-3.83,5.83c-1.14,2.12-1.99,3.91-2.54,5.4c-0.55,1.48-1.07,2.68-1.54,3.59
		c-0.47,0.91-1,1.57-1.59,1.98c-0.59,0.41-1.46,0.61-2.64,0.61c-1.3,0-2.22-0.37-2.76-1.12c-0.54-0.75-0.81-1.73-0.81-2.93
		c0-0.94,0.15-2,0.44-3.17l16.11-64.55c0.1-0.39,0.26-0.81,0.49-1.27c0.23-0.46,0.54-0.88,0.93-1.27s0.85-0.72,1.39-0.98
		c0.54-0.26,1.15-0.39,1.83-0.39c0.52,0,1.07,0.02,1.66,0.07s1.11,0.15,1.59,0.29c0.47,0.15,0.86,0.38,1.17,0.71
		c0.31,0.33,0.46,0.75,0.46,1.27c0,0.13-0.03,0.4-0.1,0.81c-0.07,0.41-0.16,0.87-0.29,1.39c-1.76,7.06-3.64,14.42-5.64,22.07
		c-2,7.65-4.03,15.38-6.08,23.19c1.99-2.44,4.05-4.68,6.2-6.71c2.15-2.03,4.35-3.78,6.62-5.25c2.26-1.46,4.61-2.61,7.03-3.44
		c2.42-0.83,4.94-1.25,7.54-1.25c1.66,0,2.95,0.53,3.86,1.59c0.91,1.06,1.37,2.4,1.37,4.03c0,0.75-0.1,1.48-0.29,2.2
		c-0.39,1.5-0.83,2.97-1.32,4.42c-0.49,1.45-0.99,2.91-1.51,4.37c-0.52,1.46-1.04,2.95-1.56,4.47c-0.52,1.51-0.98,3.07-1.37,4.66
		c-0.52,2.05-0.88,4-1.07,5.83c-0.2,1.84-0.33,3.31-0.39,4.42c-0.07,0.94-0.21,1.86-0.44,2.73c-0.23,0.88-0.56,1.65-1,2.32
		s-0.99,1.2-1.66,1.61C1127.75,321.71,1126.96,321.91,1126.05,321.91z"/>
	<path class="st1" d="M1147.24,310.19c0.49-1.89,1.07-4.08,1.76-6.59c0.68-2.51,1.41-5.16,2.17-7.96c0.76-2.8,1.54-5.66,2.32-8.59
		s1.51-5.78,2.2-8.54c0.03-0.13,0.15-0.35,0.34-0.66c0.2-0.31,0.47-0.62,0.83-0.93c0.36-0.31,0.81-0.58,1.37-0.81
		c0.55-0.23,1.2-0.34,1.95-0.34c0.55,0,1.09,0.06,1.61,0.17c0.52,0.11,0.98,0.29,1.39,0.51c0.41,0.23,0.73,0.53,0.98,0.9
		c0.24,0.37,0.37,0.81,0.37,1.29c0,0.1,0,0.2,0,0.32c0,0.11-0.02,0.22-0.05,0.32l-1.37,5.18c-1.53,5.79-3.08,11.6-4.66,17.43
		c-1.58,5.83-3.12,11.67-4.61,17.53c-0.07,0.2-0.16,0.44-0.29,0.73c-0.13,0.29-0.31,0.59-0.54,0.88c-0.23,0.29-0.5,0.54-0.83,0.73
		c-0.33,0.2-0.72,0.29-1.17,0.29c-0.85,0-1.6-0.17-2.25-0.51c-0.65-0.34-1.21-0.77-1.66-1.29c-0.46-0.52-0.8-1.09-1.03-1.71
		c-0.23-0.62-0.34-1.2-0.34-1.76c0-0.16,0-0.31,0-0.44c0-0.13,0.03-0.28,0.1-0.44L1147.24,310.19z M1159.99,259.65
		c0.16-0.68,0.46-1.51,0.88-2.49c0.42-0.98,1.17-1.86,2.25-2.64c0.52-0.29,1.16-0.56,1.9-0.81c0.75-0.24,1.29-0.37,1.61-0.37
		c0.33,0,0.66,0.11,1,0.34c0.34,0.23,0.64,0.47,0.9,0.73c0.33,0.33,0.63,0.68,0.93,1.07c0.81,0.07,1.34,0.36,1.59,0.88
		c0.24,0.52,0.37,1.14,0.37,1.86c0,0.52-0.05,0.99-0.15,1.42c-0.1,0.42-0.18,0.77-0.24,1.03c-0.2,0.68-0.57,1.31-1.12,1.88
		c-0.55,0.57-1.19,1.06-1.9,1.46c-0.72,0.41-1.46,0.72-2.25,0.95c-0.78,0.23-1.46,0.34-2.05,0.34c-0.75,0-1.33-0.13-1.73-0.39
		c-0.41-0.26-0.92-0.81-1.54-1.66c-0.36-0.49-0.56-0.87-0.61-1.15c-0.05-0.28-0.07-0.51-0.07-0.71c0-0.36,0.02-0.68,0.07-0.95
		C1159.87,260.18,1159.92,259.92,1159.99,259.65z"/>
	<path class="st1" d="M1207.3,279.04c-1.14,0-2.36,0.27-3.66,0.81c-1.3,0.54-2.65,1.26-4.05,2.17c-1.4,0.91-2.82,1.95-4.27,3.1
		c-1.45,1.16-2.87,2.35-4.27,3.59c-0.72,0.62-1.4,1.18-2.05,1.68c-0.65,0.5-1.3,0.89-1.95,1.15c-0.46,0.75-0.94,1.73-1.44,2.95
		c-0.5,1.22-1,2.56-1.49,4c-0.49,1.45-0.95,2.93-1.39,4.44s-0.81,2.92-1.1,4.22c-0.16,0.68-0.29,1.35-0.39,2
		c-0.1,0.65-0.21,1.34-0.34,2.08c-0.13,0.73-0.29,1.52-0.46,2.37c-0.18,0.85-0.4,1.79-0.66,2.83c-0.16,0.62-0.42,1.12-0.78,1.49
		c-0.36,0.37-0.73,0.66-1.12,0.85s-0.77,0.32-1.12,0.37c-0.36,0.05-0.63,0.07-0.83,0.07c-1.24,0-2.25-0.29-3.03-0.88
		s-1.17-1.73-1.17-3.42c0-0.46,0.02-0.94,0.05-1.44c0.03-0.5,0.13-1.07,0.29-1.68c0.72-3.09,1.41-5.88,2.08-8.35
		c0.67-2.47,1.34-4.77,2.03-6.88c0.68-2.12,1.38-4.11,2.08-5.98c0.7-1.87,1.42-3.76,2.15-5.66s1.5-3.87,2.29-5.91
		c0.8-2.03,1.65-4.29,2.56-6.76c0.2-0.55,0.71-1.02,1.54-1.39c0.83-0.37,1.72-0.56,2.66-0.56c1.24,0,2.25,0.28,3.05,0.83
		c0.8,0.55,1.2,1.35,1.2,2.39c0,0.1-0.03,0.28-0.1,0.54c-0.07,0.26-0.16,0.54-0.29,0.83l-2.15,5.08c1.37-1.07,2.79-2.15,4.27-3.22
		c1.48-1.07,3-2.04,4.57-2.91c1.56-0.86,3.13-1.56,4.71-2.1c1.58-0.54,3.13-0.81,4.66-0.81c3.13,0,5.57,0.84,7.32,2.51
		c1.76,1.68,2.64,4.27,2.64,7.79c0,2.02-0.35,4.31-1.05,6.88c-0.7,2.57-1.58,5.33-2.64,8.28c-1.06,2.95-2.2,6.04-3.42,9.28
		c-1.22,3.24-2.35,6.54-3.39,9.89c-0.29,0.91-0.59,1.68-0.9,2.29c-0.31,0.62-0.68,1.12-1.1,1.49c-0.42,0.37-0.92,0.64-1.49,0.81
		c-0.57,0.16-1.26,0.24-2.08,0.24c-1.27,0-2.15-0.24-2.64-0.71c-0.49-0.47-0.73-1.23-0.73-2.27c0-0.91,0.14-2.03,0.42-3.34
		c0.28-1.32,0.67-2.77,1.17-4.35c0.5-1.58,1.09-3.26,1.76-5.05c0.67-1.79,1.39-3.61,2.17-5.47c0.62-1.5,1.23-2.99,1.83-4.49
		c0.6-1.5,1.14-2.95,1.61-4.35c0.47-1.4,0.85-2.73,1.15-4s0.44-2.44,0.44-3.52c0-1.01-0.22-1.9-0.66-2.66
		C1209.33,279.42,1208.51,279.04,1207.3,279.04z"/>
	<path class="st1" d="M1230.59,341.69c-0.26,0-0.55-0.06-0.88-0.17c-0.33-0.11-0.63-0.29-0.9-0.54c-0.28-0.24-0.51-0.55-0.71-0.93
		c-0.2-0.37-0.29-0.82-0.29-1.34c0-0.36,0.05-0.73,0.15-1.12c0.26-1.07,0.54-1.95,0.83-2.61c0.29-0.67,0.72-1.23,1.27-1.68
		c0.55-0.46,1.3-0.84,2.25-1.15c0.94-0.31,2.18-0.63,3.71-0.95c0.98-0.2,1.9-0.42,2.76-0.66c0.86-0.24,1.57-0.55,2.12-0.9
		c1.66-1.46,3.07-2.98,4.22-4.54c1.16-1.56,2.13-3.18,2.93-4.86c0.8-1.68,1.46-3.39,2-5.15s1.05-3.55,1.54-5.37
		c0.2-0.62,0.37-1.26,0.51-1.93c0.15-0.67,0.33-1.42,0.56-2.27c-1.24,1.07-2.52,2.15-3.86,3.22c-1.33,1.07-2.7,2.03-4.1,2.88
		c-1.4,0.85-2.82,1.54-4.27,2.08c-1.45,0.54-2.89,0.81-4.32,0.81c-0.85,0-1.8-0.26-2.86-0.78c-1.06-0.52-2.06-1.2-3-2.05
		c-0.94-0.85-1.74-1.83-2.39-2.95c-0.65-1.12-0.98-2.3-0.98-3.54c0-0.78,0.1-1.63,0.29-2.54c0.2-0.91,0.37-1.73,0.54-2.44
		c0.52-2.15,1.29-4.23,2.29-6.25c1.01-2.02,2.18-3.94,3.52-5.76c1.33-1.82,2.8-3.56,4.39-5.2c1.59-1.64,3.25-3.17,4.98-4.57
		c2.15-1.76,4.3-3.03,6.45-3.81s4.43-1.17,6.84-1.17c1.01,0,1.98,0.05,2.91,0.15s1.81,0.3,2.64,0.61c0.83,0.31,1.6,0.77,2.32,1.37
		c0.72,0.6,1.37,1.39,1.95,2.37c0.13,0.23,0.24,0.5,0.32,0.81c0.08,0.31,0.12,0.58,0.12,0.81c0,0.26-0.07,0.9-0.22,1.93
		s-0.34,2.29-0.59,3.81s-0.54,3.21-0.88,5.08c-0.34,1.87-0.69,3.76-1.05,5.66c-0.36,1.9-0.72,3.78-1.07,5.62
		c-0.36,1.84-0.7,3.49-1.03,4.96c-0.55,2.57-1.25,5.22-2.08,7.96s-1.84,5.4-3.03,8.01c-1.19,2.6-2.58,5.06-4.17,7.37
		c-1.6,2.31-3.45,4.34-5.57,6.08c-2.12,1.74-4.51,3.13-7.18,4.15C1236.91,341.17,1233.91,341.69,1230.59,341.69z M1235.43,301.26
		c-0.1,0.39-0.19,0.79-0.27,1.2c-0.08,0.41-0.12,0.81-0.12,1.2c0,0.72,0.13,1.33,0.39,1.86c0.26,0.52,0.73,0.78,1.42,0.78
		c1.07,0,2.33-0.38,3.78-1.15c1.45-0.76,2.9-1.73,4.35-2.91c1.45-1.17,2.82-2.44,4.1-3.81c1.29-1.37,2.3-2.67,3.05-3.91
		c0.33-0.52,0.76-1.24,1.29-2.15c0.54-0.91,1.07-1.9,1.61-2.95c0.54-1.06,1.02-2.12,1.44-3.17c0.42-1.06,0.68-1.99,0.78-2.81
		c0-0.55-0.11-1.07-0.34-1.54c-0.23-0.47-0.42-1.13-0.59-1.98h-0.44c-0.78,0-1.68,0.25-2.69,0.76c-1.01,0.5-2.08,1.16-3.2,1.98
		c-1.12,0.81-2.25,1.73-3.39,2.76c-1.14,1.03-2.21,2.07-3.22,3.13c-1.01,1.06-1.93,2.08-2.76,3.08c-0.83,0.99-1.47,1.86-1.93,2.61
		c-0.68,1.07-1.31,2.16-1.88,3.25C1236.25,298.56,1235.79,299.82,1235.43,301.26z"/>
	<path class="st1" d="M100.66,435.51c0-1.14,0.16-2.34,0.49-3.61c1.11-4.43,2.4-8.76,3.88-13.01c1.48-4.25,2.82-8.47,4.03-12.67
		c1.2-4.2,2.21-7.74,3-10.62c0.8-2.88,1.51-5.35,2.12-7.42c0.62-2.07,1.19-3.85,1.71-5.35c0.52-1.5,1.09-2.98,1.71-4.44
		c0.39-0.88,0.82-1.79,1.29-2.73c0.47-0.94,0.98-1.81,1.54-2.61c0.55-0.8,1.13-1.45,1.73-1.95c0.6-0.5,1.23-0.76,1.88-0.76
		c1.33,0,2.35,0.22,3.05,0.66c0.7,0.44,1.13,0.84,1.29,1.2l0.44,2c0.49-0.03,1.12-0.12,1.9-0.27s1.57-0.3,2.37-0.46
		c0.8-0.16,1.54-0.33,2.22-0.49c0.68-0.16,1.2-0.31,1.56-0.44c2.15-0.59,4.13-1.09,5.96-1.51c1.82-0.42,3.56-0.77,5.2-1.05
		c1.64-0.28,3.21-0.48,4.71-0.61c1.5-0.13,3.01-0.2,4.54-0.2c1.5,0,2.72,0.08,3.66,0.24c0.94,0.16,1.69,0.38,2.25,0.66
		c0.55,0.28,0.94,0.6,1.15,0.98c0.21,0.37,0.32,0.77,0.32,1.2c0,0.39-0.11,0.81-0.32,1.25c-0.21,0.44-0.56,0.85-1.05,1.25
		s-1.12,0.73-1.9,1.03s-1.76,0.49-2.93,0.59c-0.29,0.07-0.97,0.19-2.03,0.37c-1.06,0.18-2.21,0.37-3.44,0.59
		c-1.24,0.21-2.41,0.42-3.52,0.61c-1.11,0.2-1.87,0.34-2.29,0.44h0.05c-0.2,0.03-0.66,0.15-1.39,0.37
		c-0.73,0.21-1.62,0.46-2.66,0.73c-1.04,0.28-2.17,0.59-3.39,0.95c-1.22,0.36-2.43,0.71-3.61,1.05c-1.19,0.34-2.29,0.67-3.3,0.98
		c-1.01,0.31-1.82,0.56-2.44,0.76c-1.99,0.78-3.54,1.81-4.66,3.1c-1.12,1.29-2.01,2.73-2.66,4.32c-0.13,0.29-0.33,0.79-0.59,1.49
		c-0.26,0.7-0.55,1.5-0.85,2.39c-0.31,0.9-0.64,1.85-1,2.86c-0.36,1.01-0.7,1.97-1.03,2.88c-0.33,0.91-0.61,1.74-0.85,2.49
		c-0.24,0.75-0.42,1.3-0.51,1.66c-0.1,0.33-0.16,0.62-0.2,0.88c-0.03,0.26-0.05,0.46-0.05,0.59c0,0.2,0.05,0.29,0.15,0.29
		c0.49,0,1.51-0.22,3.05-0.66c1.55-0.44,3.35-0.98,5.42-1.64c2.07-0.65,4.28-1.35,6.64-2.1c2.36-0.75,4.62-1.45,6.79-2.1
		c2.16-0.65,4.09-1.2,5.79-1.64c1.69-0.44,2.91-0.66,3.66-0.66c1.14,0,1.9,0.19,2.29,0.56c0.39,0.37,0.59,0.79,0.59,1.25
		c0,1.17-0.42,2.2-1.25,3.08s-1.86,1.64-3.1,2.29c-0.39,0.2-1.12,0.48-2.17,0.85c-1.06,0.37-2.2,0.76-3.42,1.15
		s-2.38,0.77-3.49,1.12c-1.11,0.36-1.9,0.62-2.39,0.78c-3.19,1.24-5.79,2.25-7.79,3.05c-2,0.8-3.62,1.45-4.86,1.95
		c-1.24,0.5-2.19,0.89-2.86,1.15c-0.67,0.26-1.29,0.48-1.86,0.66c-0.57,0.18-1.2,0.35-1.88,0.51c-0.68,0.16-1.63,0.39-2.83,0.68
		c-0.29,0.68-0.63,1.72-1.03,3.1c-0.39,1.38-0.77,2.82-1.12,4.3c-0.36,1.48-0.66,2.86-0.9,4.13s-0.37,2.15-0.37,2.64
		c0,0.59,0.08,1.02,0.24,1.29c0.16,0.28,0.36,0.46,0.59,0.56c0.23,0.1,0.46,0.15,0.68,0.15c0.23,0,0.41,0,0.54,0
		c1.56,0,3.44-0.23,5.64-0.68c2.2-0.46,4.37-1.06,6.52-1.81c2.05-0.72,3.84-1.5,5.37-2.34c1.53-0.85,2.97-1.64,4.32-2.37
		c1.35-0.73,2.67-1.35,3.96-1.86c1.29-0.5,2.69-0.77,4.22-0.81c0.33,0,0.71,0.03,1.15,0.1c0.44,0.07,0.85,0.19,1.25,0.37
		c0.39,0.18,0.71,0.42,0.95,0.71s0.33,0.67,0.27,1.12c-0.13,0.94-0.6,1.87-1.42,2.78c-0.81,0.91-1.84,1.79-3.08,2.64
		c-1.24,0.85-2.62,1.66-4.15,2.44c-1.53,0.78-3.09,1.52-4.69,2.22c-1.6,0.7-3.16,1.33-4.69,1.9c-1.53,0.57-2.9,1.07-4.1,1.49
		c-3,1.04-5.91,1.81-8.74,2.29s-5.37,0.73-7.62,0.73c-2.47,0-4.37-0.46-5.69-1.39S100.66,437.66,100.66,435.51z"/>
	<path class="st1" d="M161.21,430.48c0.26,0,0.5,0.03,0.71,0.1c0.21,0.07,0.45,0.14,0.71,0.22c0.26,0.08,0.55,0.15,0.88,0.22
		c0.33,0.07,0.75,0.1,1.27,0.1c1.53,0,3.23-0.16,5.1-0.49c1.87-0.33,3.64-0.75,5.3-1.27c1.66-0.52,3.08-1.11,4.27-1.78
		c1.19-0.67,1.86-1.36,2.03-2.08c0.1-0.39,0.15-0.73,0.15-1.03c0-0.55-0.27-1.08-0.81-1.59c-0.54-0.5-1.21-0.98-2.03-1.44
		c-0.81-0.46-1.69-0.88-2.64-1.27c-0.94-0.39-1.82-0.75-2.64-1.07l-1.66-0.68c-0.85-0.33-1.68-0.72-2.49-1.2
		c-0.81-0.47-1.57-1.02-2.27-1.64c-0.7-0.62-1.32-1.34-1.86-2.17s-0.94-1.78-1.2-2.86c-0.13-0.46-0.24-0.91-0.32-1.37
		c-0.08-0.46-0.12-0.94-0.12-1.46c0-0.85,0.28-1.81,0.85-2.91c0.57-1.09,1.33-2.17,2.29-3.25c0.96-1.07,2.05-2.1,3.27-3.08
		s2.5-1.79,3.83-2.44c0.98-0.68,1.92-1.3,2.83-1.86c0.91-0.55,1.83-1.03,2.76-1.42s1.87-0.7,2.83-0.93
		c0.96-0.23,1.98-0.34,3.05-0.34c0.98,0,2.03,0.05,3.17,0.15c1.14,0.1,2.18,0.33,3.13,0.68c0.94,0.36,1.73,0.89,2.37,1.59
		c0.63,0.7,0.95,1.64,0.95,2.81c0,0.36-0.05,0.83-0.15,1.42s-0.26,1.17-0.49,1.76c-0.23,0.59-0.5,1.09-0.83,1.51
		c-0.33,0.42-0.72,0.63-1.17,0.63c-0.75,0-1.37-0.15-1.86-0.44s-0.93-0.61-1.32-0.95s-0.8-0.66-1.22-0.95
		c-0.42-0.29-0.94-0.44-1.56-0.44c-0.75,0-1.62,0.14-2.61,0.42c-0.99,0.28-2.01,0.65-3.05,1.12c-1.04,0.47-2.06,1.02-3.05,1.64
		c-0.99,0.62-1.89,1.25-2.69,1.9c-0.8,0.65-1.44,1.29-1.93,1.93s-0.73,1.21-0.73,1.73c0,0.55,0.18,1.01,0.54,1.37
		c0.36,0.36,0.81,0.67,1.37,0.93c0.72,0.39,1.54,0.78,2.47,1.17s1.86,0.78,2.81,1.17c0.94,0.39,1.86,0.78,2.76,1.17
		c0.9,0.39,1.67,0.75,2.32,1.07c0.88,0.46,1.67,0.9,2.37,1.34c0.7,0.44,1.29,0.92,1.78,1.44c0.49,0.52,0.86,1.11,1.12,1.76
		c0.26,0.65,0.39,1.42,0.39,2.29c0,0.42-0.03,0.85-0.1,1.27c-0.07,0.42-0.16,0.91-0.29,1.46c-0.1,0.49-0.27,1.06-0.51,1.71
		c-0.24,0.65-0.5,1.29-0.78,1.93c-0.28,0.63-0.56,1.2-0.85,1.71c-0.29,0.5-0.54,0.84-0.73,1c-1.27,1.17-2.77,2.27-4.49,3.3
		c-1.73,1.03-3.52,1.92-5.4,2.69c-1.87,0.77-3.74,1.38-5.62,1.83c-1.87,0.46-3.59,0.68-5.15,0.68c-0.78,0-1.64-0.15-2.59-0.46
		c-0.94-0.31-1.81-0.72-2.61-1.22c-0.8-0.5-1.46-1.08-2-1.73c-0.54-0.65-0.81-1.3-0.81-1.95c0-0.33,0.1-0.69,0.29-1.1
		c0.2-0.41,0.44-0.78,0.73-1.12s0.61-0.63,0.95-0.88S160.92,430.48,161.21,430.48z"/>
	<path class="st1" d="M208.38,423.94c0-2.73,0.31-5.57,0.93-8.52c0.62-2.95,1.27-5.77,1.95-8.47c-0.85-0.03-1.71-0.16-2.59-0.39
		c-0.88-0.23-1.68-0.54-2.39-0.93c-0.72-0.39-1.3-0.87-1.76-1.44c-0.46-0.57-0.68-1.23-0.68-1.98c0-0.29,0.06-0.67,0.2-1.12
		c0.13-0.46,0.32-0.9,0.56-1.34s0.56-0.81,0.95-1.12c0.39-0.31,0.83-0.46,1.32-0.46h6.54c0.62,0,1.04-0.27,1.27-0.81
		c0.23-0.54,0.41-1.07,0.54-1.59c0.42-1.89,0.82-3.52,1.2-4.91c0.37-1.38,0.69-2.56,0.95-3.52c0.26-0.96,0.46-1.74,0.61-2.34
		c0.15-0.6,0.22-1.08,0.22-1.44c0-0.42-0.02-0.83-0.05-1.22c-0.03-0.39-0.05-0.93-0.05-1.61v-0.49c0-0.26,0.02-0.6,0.07-1.03
		c0.05-0.42,0.2-1.03,0.46-1.81c0.2-0.62,0.55-1.2,1.07-1.76c0.52-0.55,1.29-0.83,2.29-0.83c0.88,0,1.63,0.18,2.25,0.54
		c0.62,0.36,1.12,0.83,1.51,1.42s0.68,1.25,0.88,2c0.2,0.75,0.29,1.5,0.29,2.25c0,0.81-0.08,1.55-0.24,2.2l-3.56,13.67
		c1.76-0.29,3.32-0.57,4.69-0.83c1.37-0.26,2.73-0.52,4.1-0.78c1.5-0.29,2.79-0.57,3.88-0.83c1.09-0.26,2.03-0.48,2.81-0.66
		c0.78-0.18,1.44-0.33,1.98-0.44c0.54-0.11,0.98-0.17,1.34-0.17c0.52,0,1.05,0.04,1.59,0.12c0.54,0.08,1.01,0.22,1.42,0.42
		c0.41,0.2,0.74,0.47,1,0.83c0.26,0.36,0.39,0.83,0.39,1.42c0,0.78-0.15,1.47-0.46,2.08c-0.31,0.6-0.71,1.12-1.2,1.56
		s-1.04,0.8-1.66,1.07c-0.62,0.28-1.24,0.48-1.86,0.61c-0.52,0.1-1.2,0.24-2.03,0.44s-1.74,0.41-2.73,0.63
		c-0.99,0.23-2.03,0.47-3.1,0.73c-1.07,0.26-2.12,0.52-3.13,0.78c-1.5,0.39-2.78,0.72-3.83,0.98c-1.06,0.26-1.96,0.46-2.71,0.59
		c-0.75,0.13-1.36,0.23-1.83,0.29c-0.47,0.07-0.85,0.1-1.15,0.1c-0.62,1.86-1.16,3.68-1.61,5.47c-0.46,1.79-0.84,3.46-1.15,5
		c-0.31,1.55-0.54,2.93-0.68,4.15s-0.22,2.17-0.22,2.86c0,0.88,0.08,1.72,0.24,2.51c0.16,0.8,0.44,1.49,0.83,2.08
		s0.92,1.05,1.59,1.39c0.67,0.34,1.51,0.51,2.51,0.51c1.73,0,3.42-0.47,5.08-1.42c1.66-0.94,3.25-2.14,4.76-3.59
		c1.51-1.45,2.95-3.04,4.3-4.76c1.35-1.73,2.6-3.37,3.74-4.93c0.39-0.59,0.9-0.88,1.51-0.88c0.2,0,0.43,0.03,0.71,0.1
		c0.28,0.07,0.54,0.18,0.81,0.34c0.26,0.16,0.48,0.37,0.66,0.63c0.18,0.26,0.27,0.57,0.27,0.93c0,0.26-0.02,0.46-0.05,0.59
		c-0.52,2.02-1.33,4.04-2.42,6.08c-1.09,2.03-2.21,4.08-3.34,6.13c-0.39,0.72-0.9,1.42-1.54,2.1s-1.33,1.34-2.08,1.98
		c-0.75,0.63-1.53,1.24-2.34,1.81c-0.81,0.57-1.58,1.08-2.29,1.54c-1.24,0.78-2.59,1.32-4.05,1.61s-2.88,0.44-4.25,0.44
		c-2.12,0-4-0.38-5.64-1.15c-1.64-0.76-3.03-1.81-4.15-3.13s-1.98-2.86-2.56-4.61S208.38,425.96,208.38,423.94z"/>
	<path class="st1" d="M255.15,434.1c0.42-2.28,0.91-4.79,1.46-7.52c0.55-2.73,1.12-5.5,1.71-8.3c0.59-2.8,1.16-5.55,1.71-8.25
		c0.55-2.7,1.03-5.18,1.42-7.42c-0.03-0.33-0.05-0.61-0.05-0.85s0-0.51,0-0.81c0-1.01,0.06-2.02,0.2-3.03
		c0.13-1.01,0.31-1.94,0.54-2.78c0.36-1.24,0.76-2.08,1.2-2.51s1.15-0.66,2.12-0.66c0.94,0,1.7,0.19,2.27,0.56
		c0.57,0.37,1.02,0.87,1.34,1.49c0.33,0.62,0.54,1.33,0.63,2.12c0.1,0.8,0.15,1.62,0.15,2.47c0,0.46-0.02,0.96-0.05,1.51
		c-0.03,0.55-0.05,0.99-0.05,1.32c0.91-0.94,1.88-1.91,2.91-2.91c1.03-0.99,2.12-1.89,3.27-2.69c1.16-0.8,2.38-1.46,3.66-1.98
		c1.29-0.52,2.63-0.78,4.03-0.78c0.55,0,1.1,0.05,1.64,0.15s1.08,0.23,1.64,0.39c0.65,0.16,1.33,0.38,2.03,0.66
		c0.7,0.28,1.38,0.66,2.03,1.15c1.07,0.81,1.98,1.83,2.71,3.05s1.1,2.47,1.1,3.74c0,0.49-0.1,1.02-0.29,1.59
		c-0.2,0.57-0.46,1.09-0.81,1.56c-0.34,0.47-0.74,0.86-1.2,1.17c-0.46,0.31-0.96,0.46-1.51,0.46c-0.55,0-1.23-0.14-2.03-0.42
		c-0.8-0.28-1.46-0.64-1.98-1.1c-0.23-0.2-0.46-0.47-0.71-0.83c-0.24-0.36-0.47-0.72-0.68-1.07c-0.21-0.36-0.41-0.69-0.59-1
		c-0.18-0.31-0.32-0.51-0.42-0.61c-0.16-0.03-0.34-0.06-0.54-0.07c-0.2-0.02-0.37-0.02-0.54-0.02c-1.66,0-3.24,0.42-4.74,1.27
		c-1.5,0.85-2.9,1.88-4.2,3.1c-1.3,1.22-2.5,2.52-3.59,3.91c-1.09,1.38-2.04,2.63-2.86,3.74c-0.65,2.64-1.38,5.44-2.17,8.42
		c-0.8,2.98-1.59,6.1-2.37,9.35v1.22c0,0.98-0.03,1.97-0.1,2.98c-0.07,1.01-0.26,1.9-0.59,2.69c-0.36,0.49-0.87,0.9-1.54,1.25
		c-0.67,0.34-1.44,0.51-2.32,0.51c-1.37,0-2.39-0.45-3.08-1.34s-1.03-1.94-1.03-3.15C254.91,435.25,254.99,434.68,255.15,434.1z"/>
	<path class="st1" d="M320.49,437.03c0-0.94,0.11-2.08,0.34-3.39c0.23-1.32,0.34-2.95,0.34-4.91c-1.07,0.78-2.26,1.71-3.56,2.78
		c-1.3,1.07-2.65,2.1-4.05,3.08c-1.4,0.98-2.79,1.8-4.17,2.47c-1.38,0.67-2.68,1-3.88,1c-0.98,0-1.9-0.15-2.78-0.44
		s-1.63-0.68-2.25-1.17c-1.73-1.37-2.97-2.73-3.74-4.1c-0.77-1.37-1.15-2.96-1.15-4.79c0-0.81,0.07-1.66,0.22-2.54
		s0.37-1.89,0.66-3.03c1.24-5.14,3.36-9.9,6.37-14.28c3.01-4.38,6.75-8.11,11.21-11.21c1.73-1.2,3.45-1.98,5.18-2.32
		c1.73-0.34,3.43-0.51,5.13-0.51c0.75,0,1.59,0.05,2.51,0.15s1.77,0.2,2.51,0.29c0.75-0.16,1.36-0.28,1.83-0.34
		c0.47-0.06,0.97-0.1,1.49-0.1c0.98,0,1.79,0.13,2.44,0.39c0.65,0.26,1.17,0.61,1.56,1.05s0.68,0.94,0.85,1.51
		c0.18,0.57,0.27,1.16,0.27,1.78c0,0.85-0.13,1.65-0.39,2.42c-0.26,0.77-0.52,1.54-0.78,2.32l-6.45,25.73
		c-0.13,1.4-0.24,2.69-0.34,3.86s-0.29,2.26-0.59,3.27c-0.1,0.29-0.22,0.66-0.37,1.1s-0.38,0.86-0.71,1.27
		c-0.33,0.41-0.73,0.76-1.22,1.05s-1.12,0.44-1.9,0.44c-1.01,0-1.81-0.07-2.42-0.2c-0.6-0.13-1.07-0.32-1.39-0.56
		c-0.33-0.24-0.54-0.54-0.63-0.88S320.49,437.48,320.49,437.03z M304.28,422.28c-0.13,0.46-0.27,1.11-0.42,1.95
		c-0.15,0.85-0.22,1.69-0.22,2.54c0,0.88,0.13,1.67,0.39,2.37c0.26,0.7,0.83,1.05,1.71,1.05c1.37,0,2.64-0.3,3.83-0.9
		c1.19-0.6,2.3-1.33,3.34-2.17c1.4-1.14,2.82-2.42,4.27-3.83c1.45-1.42,2.82-2.91,4.1-4.47c1.29-1.56,2.42-3.17,3.42-4.81
		c0.99-1.64,1.72-3.28,2.17-4.91c0.26-0.94,0.48-2.03,0.66-3.27c0.18-1.24,0.27-2.34,0.27-3.32c0-0.42-0.1-0.84-0.29-1.25
		c-0.2-0.41-0.57-0.61-1.12-0.61c-1.6,0-3.2,0.31-4.81,0.93c-1.61,0.62-3.17,1.45-4.66,2.49c-1.5,1.04-2.92,2.27-4.27,3.69
		c-1.35,1.42-2.58,2.93-3.69,4.54c-1.11,1.61-2.06,3.27-2.86,4.98C305.31,418.99,304.7,420.65,304.28,422.28z"/>
	<path class="st1" d="M352.22,423.94c0-2.73,0.31-5.57,0.93-8.52c0.62-2.95,1.27-5.77,1.95-8.47c-0.85-0.03-1.71-0.16-2.59-0.39
		c-0.88-0.23-1.68-0.54-2.39-0.93c-0.72-0.39-1.3-0.87-1.76-1.44c-0.46-0.57-0.68-1.23-0.68-1.98c0-0.29,0.06-0.67,0.2-1.12
		c0.13-0.46,0.32-0.9,0.56-1.34s0.56-0.81,0.95-1.12c0.39-0.31,0.83-0.46,1.32-0.46h6.54c0.62,0,1.04-0.27,1.27-0.81
		c0.23-0.54,0.41-1.07,0.54-1.59c0.42-1.89,0.82-3.52,1.2-4.91c0.37-1.38,0.69-2.56,0.95-3.52c0.26-0.96,0.46-1.74,0.61-2.34
		c0.15-0.6,0.22-1.08,0.22-1.44c0-0.42-0.02-0.83-0.05-1.22c-0.03-0.39-0.05-0.93-0.05-1.61v-0.49c0-0.26,0.02-0.6,0.07-1.03
		c0.05-0.42,0.2-1.03,0.46-1.81c0.2-0.62,0.55-1.2,1.07-1.76c0.52-0.55,1.29-0.83,2.29-0.83c0.88,0,1.63,0.18,2.25,0.54
		c0.62,0.36,1.12,0.83,1.51,1.42s0.68,1.25,0.88,2c0.2,0.75,0.29,1.5,0.29,2.25c0,0.81-0.08,1.55-0.24,2.2l-3.56,13.67
		c1.76-0.29,3.32-0.57,4.69-0.83c1.37-0.26,2.73-0.52,4.1-0.78c1.5-0.29,2.79-0.57,3.88-0.83c1.09-0.26,2.03-0.48,2.81-0.66
		c0.78-0.18,1.44-0.33,1.98-0.44c0.54-0.11,0.98-0.17,1.34-0.17c0.52,0,1.05,0.04,1.59,0.12c0.54,0.08,1.01,0.22,1.42,0.42
		c0.41,0.2,0.74,0.47,1,0.83c0.26,0.36,0.39,0.83,0.39,1.42c0,0.78-0.15,1.47-0.46,2.08c-0.31,0.6-0.71,1.12-1.2,1.56
		s-1.04,0.8-1.66,1.07c-0.62,0.28-1.24,0.48-1.86,0.61c-0.52,0.1-1.2,0.24-2.03,0.44s-1.74,0.41-2.73,0.63
		c-0.99,0.23-2.03,0.47-3.1,0.73c-1.07,0.26-2.12,0.52-3.13,0.78c-1.5,0.39-2.78,0.72-3.83,0.98c-1.06,0.26-1.96,0.46-2.71,0.59
		c-0.75,0.13-1.36,0.23-1.83,0.29c-0.47,0.07-0.85,0.1-1.15,0.1c-0.62,1.86-1.16,3.68-1.61,5.47c-0.46,1.79-0.84,3.46-1.15,5
		c-0.31,1.55-0.54,2.93-0.68,4.15s-0.22,2.17-0.22,2.86c0,0.88,0.08,1.72,0.24,2.51c0.16,0.8,0.44,1.49,0.83,2.08
		s0.92,1.05,1.59,1.39c0.67,0.34,1.51,0.51,2.51,0.51c1.73,0,3.42-0.47,5.08-1.42c1.66-0.94,3.25-2.14,4.76-3.59
		c1.51-1.45,2.95-3.04,4.3-4.76c1.35-1.73,2.6-3.37,3.74-4.93c0.39-0.59,0.9-0.88,1.51-0.88c0.2,0,0.43,0.03,0.71,0.1
		c0.28,0.07,0.54,0.18,0.81,0.34c0.26,0.16,0.48,0.37,0.66,0.63c0.18,0.26,0.27,0.57,0.27,0.93c0,0.26-0.02,0.46-0.05,0.59
		c-0.52,2.02-1.33,4.04-2.42,6.08c-1.09,2.03-2.21,4.08-3.34,6.13c-0.39,0.72-0.9,1.42-1.54,2.1s-1.33,1.34-2.08,1.98
		c-0.75,0.63-1.53,1.24-2.34,1.81c-0.81,0.57-1.58,1.08-2.29,1.54c-1.24,0.78-2.59,1.32-4.05,1.61s-2.88,0.44-4.25,0.44
		c-2.12,0-4-0.38-5.64-1.15c-1.64-0.76-3.03-1.81-4.15-3.13s-1.98-2.86-2.56-4.61S352.22,425.96,352.22,423.94z"/>
	<path class="st1" d="M397.34,420.28c0-1.4,0.37-2.59,1.12-3.56c0.75-0.98,1.74-1.63,2.98-1.95c0.36-0.72,0.91-1.68,1.66-2.91
		c0.75-1.22,1.68-2.55,2.78-3.98c1.11-1.43,2.37-2.87,3.78-4.32c1.42-1.45,2.98-2.77,4.69-3.96c1.71-1.19,3.55-2.16,5.52-2.91
		c1.97-0.75,4.06-1.12,6.27-1.12c1.89,0,3.53,0.23,4.93,0.68c1.4,0.46,2.56,1.09,3.47,1.9c0.91,0.81,1.59,1.78,2.05,2.91
		c0.46,1.12,0.68,2.34,0.68,3.64c0,1.11-0.15,2.17-0.44,3.17c-0.46,1.82-1.3,3.42-2.54,4.79c-1.24,1.37-2.69,2.56-4.37,3.59
		c-1.68,1.03-3.5,1.88-5.47,2.56c-1.97,0.68-3.94,1.25-5.91,1.71c-1.97,0.46-3.87,0.81-5.69,1.05c-1.82,0.24-3.4,0.43-4.74,0.56
		c-0.29,0.59-0.55,1.33-0.76,2.22c-0.21,0.9-0.32,1.77-0.32,2.61c0,1.89,0.75,3.35,2.25,4.39c1.5,1.04,3.56,1.56,6.2,1.56
		c1.53,0,2.99-0.17,4.39-0.51c1.4-0.34,2.73-0.78,3.98-1.32c1.25-0.54,2.43-1.12,3.54-1.76c1.11-0.63,2.12-1.26,3.03-1.88
		c1.17-0.78,2.29-1.44,3.34-1.98c1.06-0.54,1.99-0.81,2.81-0.81c0.81,0,1.33,0.2,1.56,0.61c0.23,0.41,0.34,0.84,0.34,1.29
		c0,0.26-0.01,0.51-0.02,0.76c-0.02,0.24-0.04,0.45-0.07,0.61c-0.16,0.85-0.49,1.69-0.98,2.54c-0.49,0.85-1.11,1.58-1.86,2.2
		c-3.39,2.67-6.86,4.57-10.42,5.71s-7.37,1.71-11.4,1.71c-0.78,0-1.7-0.05-2.76-0.15c-1.06-0.1-2.16-0.29-3.3-0.59
		c-1.14-0.29-2.26-0.72-3.37-1.27c-1.11-0.55-2.09-1.29-2.95-2.2c-0.86-0.91-1.56-2.03-2.1-3.37c-0.54-1.33-0.81-2.95-0.81-4.83
		c0-1.53,0.21-3.24,0.63-5.13c-0.42-0.06-0.82-0.28-1.2-0.66C397.53,421.54,397.34,421,397.34,420.28z M427.91,406.75
		c0.06-0.16,0.1-0.31,0.1-0.44c0-0.13,0-0.28,0-0.44c0-0.88-0.33-1.54-0.98-1.98c-0.65-0.44-1.43-0.66-2.34-0.66
		c-1.43,0-2.84,0.37-4.22,1.12c-1.38,0.75-2.69,1.68-3.91,2.81s-2.3,2.33-3.25,3.61c-0.94,1.29-1.68,2.45-2.2,3.49
		c2.34-0.2,4.49-0.51,6.45-0.95s3.65-0.99,5.1-1.66c1.45-0.67,2.62-1.42,3.52-2.25C427.07,408.59,427.65,407.7,427.91,406.75z
		 M444.12,373.4c-0.36,1.43-0.97,2.59-1.83,3.47c-0.86,0.88-1.93,1.64-3.2,2.29l-15.33,7.62c-0.59,0.33-1.37,0.49-2.34,0.49
		c-0.75,0-1.29-0.17-1.61-0.51c-0.33-0.34-0.49-0.79-0.49-1.34c0-0.68,0.14-1.3,0.42-1.86c0.28-0.55,0.63-1.06,1.05-1.51
		c0.42-0.46,0.88-0.85,1.37-1.2s0.93-0.64,1.32-0.9l3.71-2.2c1.56-0.91,3.09-1.83,4.59-2.76c1.5-0.93,2.9-1.76,4.2-2.49
		c1.3-0.73,2.47-1.33,3.52-1.81c1.04-0.47,1.86-0.71,2.44-0.71c0.65,0,1.2,0.23,1.64,0.68c0.44,0.46,0.66,1.06,0.66,1.81
		c0,0.16,0,0.32,0,0.46S444.18,373.24,444.12,373.4z"/>
	<path class="st1" d="M450.17,461.69c-0.26,0-0.55-0.06-0.88-0.17c-0.33-0.11-0.63-0.29-0.9-0.54c-0.28-0.24-0.51-0.55-0.71-0.93
		c-0.2-0.37-0.29-0.82-0.29-1.34c0-0.36,0.05-0.73,0.15-1.12c0.26-1.07,0.54-1.95,0.83-2.61c0.29-0.67,0.72-1.23,1.27-1.68
		c0.55-0.46,1.3-0.84,2.25-1.15c0.94-0.31,2.18-0.63,3.71-0.95c0.98-0.2,1.9-0.42,2.76-0.66c0.86-0.24,1.57-0.55,2.12-0.9
		c1.66-1.46,3.07-2.98,4.22-4.54c1.16-1.56,2.13-3.18,2.93-4.86c0.8-1.68,1.46-3.39,2-5.15s1.05-3.55,1.54-5.37
		c0.2-0.62,0.37-1.26,0.51-1.93c0.15-0.67,0.33-1.42,0.56-2.27c-1.24,1.07-2.52,2.15-3.86,3.22c-1.33,1.07-2.7,2.03-4.1,2.88
		c-1.4,0.85-2.82,1.54-4.27,2.08c-1.45,0.54-2.89,0.81-4.32,0.81c-0.85,0-1.8-0.26-2.86-0.78c-1.06-0.52-2.06-1.2-3-2.05
		c-0.94-0.85-1.74-1.83-2.39-2.95c-0.65-1.12-0.98-2.3-0.98-3.54c0-0.78,0.1-1.63,0.29-2.54c0.2-0.91,0.37-1.73,0.54-2.44
		c0.52-2.15,1.29-4.23,2.29-6.25c1.01-2.02,2.18-3.94,3.52-5.76c1.33-1.82,2.8-3.56,4.39-5.2c1.59-1.64,3.25-3.17,4.98-4.57
		c2.15-1.76,4.3-3.03,6.45-3.81s4.43-1.17,6.84-1.17c1.01,0,1.98,0.05,2.91,0.15s1.81,0.3,2.64,0.61c0.83,0.31,1.6,0.77,2.32,1.37
		c0.72,0.6,1.37,1.39,1.95,2.37c0.13,0.23,0.24,0.5,0.32,0.81c0.08,0.31,0.12,0.58,0.12,0.81c0,0.26-0.07,0.9-0.22,1.93
		s-0.34,2.29-0.59,3.81s-0.54,3.21-0.88,5.08c-0.34,1.87-0.69,3.76-1.05,5.66c-0.36,1.9-0.72,3.78-1.07,5.62
		c-0.36,1.84-0.7,3.49-1.03,4.96c-0.55,2.57-1.25,5.22-2.08,7.96s-1.84,5.4-3.03,8.01c-1.19,2.6-2.58,5.06-4.17,7.37
		c-1.6,2.31-3.45,4.34-5.57,6.08c-2.12,1.74-4.51,3.13-7.18,4.15C456.49,461.17,453.49,461.69,450.17,461.69z M455.01,421.26
		c-0.1,0.39-0.19,0.79-0.27,1.2c-0.08,0.41-0.12,0.81-0.12,1.2c0,0.72,0.13,1.33,0.39,1.86c0.26,0.52,0.73,0.78,1.42,0.78
		c1.07,0,2.34-0.38,3.78-1.15c1.45-0.76,2.9-1.73,4.35-2.91c1.45-1.17,2.82-2.44,4.1-3.81c1.29-1.37,2.3-2.67,3.05-3.91
		c0.33-0.52,0.76-1.24,1.29-2.15c0.54-0.91,1.07-1.9,1.61-2.95c0.54-1.06,1.02-2.12,1.44-3.17c0.42-1.06,0.68-1.99,0.78-2.81
		c0-0.55-0.11-1.07-0.34-1.54c-0.23-0.47-0.42-1.13-0.59-1.98h-0.44c-0.78,0-1.68,0.25-2.69,0.76c-1.01,0.5-2.08,1.16-3.2,1.98
		c-1.12,0.81-2.25,1.73-3.39,2.76c-1.14,1.03-2.21,2.07-3.22,3.13c-1.01,1.06-1.93,2.08-2.76,3.08c-0.83,0.99-1.47,1.86-1.93,2.61
		c-0.68,1.07-1.31,2.16-1.88,3.25C455.83,418.56,455.37,419.82,455.01,421.26z"/>
	<path class="st1" d="M494.66,430.19c0.49-1.89,1.07-4.08,1.76-6.59c0.68-2.51,1.41-5.16,2.17-7.96c0.76-2.8,1.54-5.66,2.32-8.59
		s1.51-5.78,2.2-8.54c0.03-0.13,0.15-0.35,0.34-0.66c0.2-0.31,0.47-0.62,0.83-0.93c0.36-0.31,0.81-0.58,1.37-0.81
		c0.55-0.23,1.2-0.34,1.95-0.34c0.55,0,1.09,0.06,1.61,0.17c0.52,0.11,0.98,0.29,1.39,0.51c0.41,0.23,0.73,0.53,0.98,0.9
		c0.24,0.37,0.37,0.81,0.37,1.29c0,0.1,0,0.2,0,0.32c0,0.11-0.02,0.22-0.05,0.32l-1.37,5.18c-1.53,5.79-3.08,11.6-4.66,17.43
		c-1.58,5.83-3.12,11.67-4.61,17.53c-0.07,0.2-0.16,0.44-0.29,0.73c-0.13,0.29-0.31,0.59-0.54,0.88c-0.23,0.29-0.5,0.54-0.83,0.73
		c-0.33,0.2-0.72,0.29-1.17,0.29c-0.85,0-1.6-0.17-2.25-0.51c-0.65-0.34-1.2-0.77-1.66-1.29c-0.46-0.52-0.8-1.09-1.03-1.71
		c-0.23-0.62-0.34-1.2-0.34-1.76c0-0.16,0-0.31,0-0.44c0-0.13,0.03-0.28,0.1-0.44L494.66,430.19z M507.4,379.65
		c0.16-0.68,0.46-1.51,0.88-2.49c0.42-0.98,1.17-1.86,2.25-2.64c0.52-0.29,1.16-0.56,1.9-0.81c0.75-0.24,1.29-0.37,1.61-0.37
		c0.33,0,0.66,0.11,1,0.34c0.34,0.23,0.64,0.47,0.9,0.73c0.33,0.33,0.63,0.68,0.93,1.07c0.81,0.07,1.34,0.36,1.59,0.88
		c0.24,0.52,0.37,1.14,0.37,1.86c0,0.52-0.05,0.99-0.15,1.42c-0.1,0.42-0.18,0.77-0.24,1.03c-0.2,0.68-0.57,1.31-1.12,1.88
		c-0.55,0.57-1.19,1.06-1.9,1.46c-0.72,0.41-1.46,0.72-2.25,0.95c-0.78,0.23-1.46,0.34-2.05,0.34c-0.75,0-1.33-0.13-1.73-0.39
		c-0.41-0.26-0.92-0.81-1.54-1.66c-0.36-0.49-0.56-0.87-0.61-1.15c-0.05-0.28-0.07-0.51-0.07-0.71c0-0.36,0.02-0.68,0.07-0.95
		C507.28,380.18,507.33,379.92,507.4,379.65z"/>
	<path class="st1" d="M520.19,420.04c0.62-2.51,1.54-5.13,2.76-7.86s2.69-5.38,4.42-7.93c1.73-2.56,3.69-4.92,5.88-7.08
		c2.2-2.16,4.6-3.93,7.2-5.3c0.85-0.46,1.77-0.8,2.78-1.03c1.01-0.23,2.03-0.34,3.08-0.34c1.07,0,2.08,0.1,3,0.29
		s1.73,0.52,2.39,0.98c0.67,0.46,1.2,1.04,1.59,1.76c0.39,0.72,0.59,1.6,0.59,2.64c0,0.78-0.11,1.57-0.34,2.37
		c-0.23,0.8-0.57,1.51-1.03,2.15c-0.46,0.63-1.03,1.15-1.71,1.54s-1.48,0.59-2.39,0.59c-0.72,0-1.38-0.13-1.98-0.39
		c-0.6-0.26-1.18-0.55-1.73-0.88c-0.29-0.2-0.57-0.37-0.83-0.51c-0.26-0.15-0.57-0.28-0.93-0.42c-1.3,0.59-2.53,1.36-3.69,2.32
		c-1.16,0.96-2.23,2.03-3.22,3.2c-0.99,1.17-1.9,2.43-2.73,3.76c-0.83,1.33-1.58,2.67-2.25,4c-0.67,1.33-1.24,2.65-1.71,3.93
		c-0.47,1.29-0.85,2.47-1.15,3.54c-0.23,0.78-0.43,1.67-0.61,2.66c-0.18,0.99-0.27,1.96-0.27,2.91c0,0.65,0.06,1.27,0.17,1.86
		c0.11,0.59,0.32,1.11,0.61,1.56c0.29,0.46,0.68,0.81,1.17,1.07c0.49,0.26,1.09,0.39,1.81,0.39c1.14,0,2.27-0.15,3.39-0.44
		s2.22-0.67,3.3-1.12c1.07-0.46,2.12-0.98,3.15-1.59c1.03-0.6,2.03-1.21,3-1.83c0.62-0.39,1.24-0.8,1.86-1.22
		c0.62-0.42,1.2-0.8,1.76-1.12c0.55-0.33,1.07-0.59,1.54-0.81c0.47-0.21,0.89-0.32,1.25-0.32c0.49,0,0.94,0.12,1.37,0.37
		c0.42,0.24,0.63,0.66,0.63,1.25c0,0.42-0.1,0.9-0.29,1.42c-0.46,1.27-1.07,2.41-1.86,3.42c-0.78,1.01-1.65,1.91-2.61,2.71
		c-0.96,0.8-1.99,1.51-3.08,2.12c-1.09,0.62-2.17,1.19-3.25,1.71c-2.02,1.07-4.06,1.88-6.13,2.42c-2.07,0.54-3.8,0.81-5.2,0.81
		c-0.46,0-0.99-0.05-1.61-0.15c-0.62-0.1-1.16-0.24-1.61-0.44c-2.64-1.14-4.56-2.67-5.76-4.59c-1.2-1.92-1.81-4.2-1.81-6.84
		c0-1.14,0.09-2.34,0.27-3.59C519.57,422.71,519.83,421.4,520.19,420.04z"/>
	<path class="st1" d="M563.02,420.43c0.49-1.99,1.25-4.09,2.27-6.32c1.03-2.23,2.37-4.48,4.03-6.76c1.66-2.28,3.65-4.51,5.98-6.69
		c2.33-2.18,5.02-4.22,8.08-6.1c0.49-0.29,1.24-0.61,2.25-0.95c1.01-0.34,2.05-0.54,3.13-0.61c1.27-1.37,2.98-2.05,5.13-2.05
		c2.54,0,4.68,0.64,6.42,1.93c1.74,1.29,3.18,3.04,4.32,5.25c0.36,0.72,0.69,1.42,1,2.1c0.31,0.68,0.57,1.41,0.78,2.17
		c0.21,0.77,0.38,1.59,0.51,2.47c0.13,0.88,0.2,1.87,0.2,2.98c0,2.57-0.41,5.19-1.22,7.86c-0.81,2.67-1.97,5.27-3.47,7.81
		c-1.5,2.54-3.31,4.97-5.44,7.3c-2.13,2.33-4.5,4.42-7.1,6.27c-1.76,1.27-3.7,2.25-5.83,2.95c-2.13,0.7-4.52,1.05-7.15,1.05
		c-2.51,0-4.68-0.33-6.52-1c-1.84-0.67-3.37-1.62-4.59-2.86c-1.22-1.24-2.13-2.72-2.73-4.44c-0.6-1.73-0.9-3.65-0.9-5.76
		C562.14,424.97,562.43,422.77,563.02,420.43z M571.12,421.06c-0.2,0.75-0.33,1.46-0.42,2.12c-0.08,0.67-0.12,1.31-0.12,1.93
		c0,1.07,0.14,2.08,0.42,3c0.28,0.93,0.72,1.73,1.34,2.39c0.62,0.67,1.39,1.19,2.32,1.56c0.93,0.37,2.06,0.56,3.39,0.56
		c2.47,0,4.78-0.63,6.91-1.88c2.13-1.25,4.03-2.82,5.69-4.71c1.66-1.89,3.05-3.91,4.17-6.08c1.12-2.16,1.91-4.16,2.37-5.98
		c0.29-1.14,0.54-2.21,0.76-3.22c0.21-1.01,0.32-1.94,0.32-2.78c0-0.85-0.15-1.64-0.46-2.37c-0.31-0.73-0.71-1.55-1.2-2.47
		c-0.29-0.55-0.59-1.13-0.88-1.73c-0.29-0.6-0.55-1.2-0.78-1.78c-0.26,0.46-0.54,0.85-0.83,1.2s-0.73,0.65-1.32,0.93
		c-0.59,0.28-1.38,0.53-2.39,0.76c-1.01,0.23-2.33,0.42-3.96,0.59c-1.07,0.36-2.17,0.91-3.27,1.66c-1.11,0.75-2.19,1.63-3.25,2.64
		c-1.06,1.01-2.07,2.1-3.03,3.27c-0.96,1.17-1.82,2.37-2.59,3.59c-0.77,1.22-1.43,2.42-2,3.59
		C571.75,419.01,571.35,420.08,571.12,421.06z"/>
</g>
<g>
	<path class="st0" d="M1048.46,546.79c0.52,0,0.94,0.2,1.25,0.61c0.31,0.41,0.54,0.9,0.71,1.49c0.16,0.59,0.27,1.22,0.32,1.9
		s0.07,1.32,0.07,1.9v1.86c0.68,1.07,1.55,2.24,2.61,3.49c1.06,1.25,2.27,2.42,3.64,3.52c1.37,1.09,2.86,2,4.47,2.73
		s3.33,1.1,5.15,1.1c1.95,0,3.78-0.46,5.49-1.37c1.71-0.91,3.3-2.12,4.76-3.64s2.82-3.25,4.05-5.2c1.24-1.95,2.35-3.98,3.34-6.08
		c0.99-2.1,1.87-4.19,2.64-6.28c0.76-2.08,1.42-4,1.98-5.76c0.55-1.76,0.99-3.28,1.32-4.57c0.33-1.29,0.55-2.17,0.68-2.66
		c0.85-3.45,1.57-6.75,2.17-9.91c0.6-3.16,0.9-6.27,0.9-9.33c0-0.75-0.23-1.17-0.68-1.27l-12.11,3.42c-0.68,0.2-1.24,0.29-1.66,0.29
		c-1.24,0-2.27-0.39-3.1-1.17s-1.25-1.9-1.25-3.37s0.14-2.64,0.42-3.54c0.28-0.9,0.72-1.57,1.32-2.03c0.6-0.46,1.39-0.76,2.37-0.9
		s2.16-0.22,3.56-0.22h0.68c0.78-0.16,1.78-0.39,3-0.68s2.58-0.63,4.08-1c1.5-0.37,3.09-0.78,4.79-1.22
		c1.69-0.44,3.4-0.88,5.13-1.32c1.72-0.44,3.44-0.87,5.15-1.29c1.71-0.42,3.31-0.81,4.81-1.17c0.1-0.03,0.42-0.11,0.98-0.24
		c0.55-0.13,1.17-0.27,1.86-0.42s1.33-0.28,1.95-0.42c0.62-0.13,1.03-0.2,1.22-0.2c0.39,0,0.75,0.11,1.07,0.34
		c0.33,0.23,0.59,0.51,0.81,0.85c0.21,0.34,0.38,0.73,0.51,1.17c0.13,0.44,0.2,0.85,0.2,1.25c0,0.98-0.38,1.82-1.12,2.54
		c-0.75,0.72-1.69,1.34-2.83,1.88c-1.14,0.54-2.38,1.01-3.74,1.42c-1.35,0.41-2.61,0.79-3.78,1.15c-1.17,0.36-2.17,0.71-3,1.05
		s-1.29,0.72-1.39,1.15c-0.16,1.43-0.33,3.03-0.49,4.79c-0.16,1.76-0.34,3.43-0.54,5.03c-0.07,0.39-0.2,1.33-0.42,2.83
		c-0.21,1.5-0.5,3.32-0.88,5.47c-0.38,2.15-0.83,4.5-1.37,7.06c-0.54,2.56-1.15,5.07-1.83,7.54c-0.75,2.7-1.73,5.58-2.95,8.64
		c-1.22,3.06-2.67,6.04-4.35,8.94c-1.68,2.9-3.57,5.61-5.69,8.13c-2.12,2.52-4.41,4.6-6.88,6.22c-0.59,0.36-1.27,0.72-2.05,1.07
		c-0.78,0.36-1.64,0.67-2.56,0.93c-0.93,0.26-1.9,0.47-2.93,0.63c-1.03,0.16-2.04,0.24-3.05,0.24c-1.69,0-3.52-0.23-5.49-0.68
		c-1.97-0.46-3.95-1.11-5.93-1.95c-1.99-0.85-3.9-1.86-5.74-3.05c-1.84-1.19-3.48-2.51-4.91-3.96c-1.43-1.45-2.57-3-3.42-4.66
		c-0.85-1.66-1.27-3.4-1.27-5.22c0-1.4,0.14-2.6,0.42-3.61c0.28-1.01,0.72-1.82,1.34-2.44c0.62-0.62,1.44-1.07,2.47-1.37
		S1046.99,546.79,1048.46,546.79z"/>
	<path class="st0" d="M1111.3,550.11c0-1.4,0.37-2.59,1.12-3.56c0.75-0.98,1.74-1.63,2.98-1.95c0.36-0.71,0.91-1.68,1.66-2.9
		c0.75-1.22,1.68-2.55,2.78-3.98c1.11-1.43,2.37-2.87,3.78-4.32c1.42-1.45,2.98-2.77,4.69-3.96c1.71-1.19,3.55-2.16,5.52-2.91
		c1.97-0.75,4.06-1.12,6.27-1.12c1.89,0,3.53,0.23,4.93,0.68c1.4,0.46,2.55,1.09,3.47,1.9c0.91,0.81,1.59,1.78,2.05,2.91
		c0.46,1.12,0.68,2.34,0.68,3.64c0,1.11-0.15,2.17-0.44,3.17c-0.46,1.82-1.3,3.42-2.54,4.78c-1.24,1.37-2.69,2.56-4.37,3.59
		c-1.68,1.03-3.5,1.88-5.47,2.56c-1.97,0.68-3.94,1.25-5.91,1.71c-1.97,0.46-3.87,0.81-5.69,1.05c-1.82,0.24-3.4,0.43-4.74,0.56
		c-0.29,0.59-0.55,1.33-0.76,2.22c-0.21,0.89-0.32,1.77-0.32,2.61c0,1.89,0.75,3.35,2.25,4.39c1.5,1.04,3.56,1.56,6.2,1.56
		c1.53,0,2.99-0.17,4.39-0.51c1.4-0.34,2.73-0.78,3.98-1.32c1.25-0.54,2.43-1.12,3.54-1.76c1.11-0.63,2.12-1.26,3.03-1.88
		c1.17-0.78,2.29-1.44,3.34-1.98c1.06-0.54,1.99-0.81,2.81-0.81c0.81,0,1.33,0.2,1.56,0.61c0.23,0.41,0.34,0.84,0.34,1.29
		c0,0.26-0.01,0.51-0.02,0.76c-0.02,0.24-0.04,0.45-0.07,0.61c-0.16,0.85-0.49,1.69-0.98,2.54c-0.49,0.85-1.11,1.58-1.86,2.2
		c-3.39,2.67-6.86,4.57-10.42,5.71c-3.56,1.14-7.37,1.71-11.4,1.71c-0.78,0-1.7-0.05-2.76-0.15c-1.06-0.1-2.16-0.29-3.3-0.59
		c-1.14-0.29-2.26-0.71-3.37-1.27c-1.11-0.55-2.09-1.29-2.95-2.2c-0.86-0.91-1.56-2.03-2.1-3.37c-0.54-1.33-0.81-2.95-0.81-4.83
		c0-1.53,0.21-3.24,0.63-5.13c-0.42-0.06-0.82-0.28-1.2-0.66C1111.49,551.37,1111.3,550.83,1111.3,550.11z M1141.87,536.58
		c0.06-0.16,0.1-0.31,0.1-0.44c0-0.13,0-0.28,0-0.44c0-0.88-0.33-1.54-0.98-1.98c-0.65-0.44-1.43-0.66-2.34-0.66
		c-1.43,0-2.84,0.37-4.22,1.12c-1.38,0.75-2.69,1.68-3.91,2.81s-2.3,2.33-3.25,3.61c-0.94,1.29-1.68,2.45-2.2,3.49
		c2.34-0.2,4.49-0.51,6.45-0.95s3.65-0.99,5.1-1.66c1.45-0.67,2.62-1.42,3.52-2.25C1141.03,538.42,1141.61,537.53,1141.87,536.58z
		 M1158.08,503.23c-0.36,1.43-0.97,2.59-1.83,3.47c-0.86,0.88-1.93,1.64-3.2,2.29l-15.33,7.62c-0.59,0.33-1.37,0.49-2.34,0.49
		c-0.75,0-1.29-0.17-1.61-0.51c-0.33-0.34-0.49-0.79-0.49-1.34c0-0.68,0.14-1.3,0.42-1.86c0.28-0.55,0.63-1.06,1.05-1.51
		c0.42-0.46,0.88-0.85,1.37-1.2s0.93-0.64,1.32-0.9l3.71-2.2c1.56-0.91,3.09-1.83,4.59-2.76c1.5-0.93,2.9-1.76,4.2-2.49
		c1.3-0.73,2.47-1.33,3.52-1.81c1.04-0.47,1.86-0.71,2.44-0.71c0.65,0,1.2,0.23,1.64,0.68c0.44,0.46,0.66,1.06,0.66,1.81
		c0,0.16,0,0.32,0,0.46S1158.14,503.07,1158.08,503.23z"/>
	<path class="st0" d="M1162.57,560.31c0.26,0,0.5,0.03,0.71,0.1c0.21,0.07,0.45,0.14,0.71,0.22c0.26,0.08,0.55,0.15,0.88,0.22
		c0.33,0.07,0.75,0.1,1.27,0.1c1.53,0,3.23-0.16,5.1-0.49c1.87-0.32,3.64-0.75,5.3-1.27c1.66-0.52,3.08-1.11,4.27-1.78
		c1.19-0.67,1.86-1.36,2.03-2.08c0.1-0.39,0.15-0.73,0.15-1.03c0-0.55-0.27-1.08-0.81-1.59c-0.54-0.5-1.21-0.98-2.03-1.44
		c-0.81-0.46-1.69-0.88-2.64-1.27c-0.94-0.39-1.82-0.75-2.64-1.07l-1.66-0.68c-0.85-0.32-1.68-0.72-2.49-1.2
		c-0.81-0.47-1.57-1.02-2.27-1.64c-0.7-0.62-1.32-1.34-1.86-2.17s-0.94-1.78-1.2-2.86c-0.13-0.46-0.24-0.91-0.32-1.37
		c-0.08-0.46-0.12-0.94-0.12-1.46c0-0.85,0.28-1.81,0.85-2.91c0.57-1.09,1.33-2.17,2.29-3.25c0.96-1.07,2.05-2.1,3.27-3.08
		s2.5-1.79,3.83-2.44c0.98-0.68,1.92-1.3,2.83-1.86c0.91-0.55,1.83-1.03,2.76-1.42s1.87-0.7,2.83-0.93
		c0.96-0.23,1.98-0.34,3.05-0.34c0.98,0,2.03,0.05,3.17,0.15c1.14,0.1,2.18,0.33,3.13,0.68c0.94,0.36,1.73,0.89,2.37,1.59
		c0.63,0.7,0.95,1.64,0.95,2.81c0,0.36-0.05,0.83-0.15,1.42s-0.26,1.17-0.49,1.76c-0.23,0.59-0.5,1.09-0.83,1.51
		c-0.33,0.42-0.72,0.63-1.17,0.63c-0.75,0-1.37-0.15-1.86-0.44s-0.93-0.61-1.32-0.95s-0.8-0.66-1.22-0.95
		c-0.42-0.29-0.94-0.44-1.56-0.44c-0.75,0-1.62,0.14-2.61,0.42c-0.99,0.28-2.01,0.65-3.05,1.12c-1.04,0.47-2.06,1.02-3.05,1.64
		c-0.99,0.62-1.89,1.25-2.69,1.9c-0.8,0.65-1.44,1.29-1.93,1.93s-0.73,1.21-0.73,1.73c0,0.55,0.18,1.01,0.54,1.37
		c0.36,0.36,0.81,0.67,1.37,0.93c0.72,0.39,1.54,0.78,2.47,1.17c0.93,0.39,1.86,0.78,2.81,1.17c0.94,0.39,1.86,0.78,2.76,1.17
		c0.89,0.39,1.67,0.75,2.32,1.07c0.88,0.46,1.67,0.9,2.37,1.34c0.7,0.44,1.29,0.92,1.78,1.44c0.49,0.52,0.86,1.11,1.12,1.76
		c0.26,0.65,0.39,1.42,0.39,2.29c0,0.42-0.03,0.85-0.1,1.27c-0.07,0.42-0.16,0.91-0.29,1.46c-0.1,0.49-0.27,1.06-0.51,1.71
		c-0.24,0.65-0.5,1.29-0.78,1.93c-0.28,0.63-0.56,1.2-0.85,1.71c-0.29,0.5-0.54,0.84-0.73,1c-1.27,1.17-2.77,2.27-4.49,3.3
		c-1.73,1.03-3.52,1.92-5.4,2.69c-1.87,0.76-3.74,1.38-5.62,1.83c-1.87,0.46-3.59,0.68-5.15,0.68c-0.78,0-1.64-0.15-2.59-0.46
		c-0.94-0.31-1.82-0.72-2.61-1.22c-0.8-0.5-1.46-1.08-2-1.73c-0.54-0.65-0.81-1.3-0.81-1.95c0-0.32,0.1-0.69,0.29-1.1
		c0.2-0.41,0.44-0.78,0.73-1.12s0.61-0.63,0.95-0.88S1162.28,560.31,1162.57,560.31z"/>
	<path class="st0" d="M1211.25,525.5c0.13-0.52,0.32-0.97,0.56-1.34c0.24-0.37,0.5-0.68,0.78-0.9c0.28-0.23,0.53-0.39,0.76-0.49
		c0.23-0.1,0.41-0.15,0.54-0.15c0.36,0,0.78,0.04,1.27,0.12c0.49,0.08,0.96,0.15,1.42,0.22c0.52,0.1,1.03,0.2,1.51,0.29
		c0.85,0.03,1.46,0.37,1.83,1.03c0.37,0.65,0.56,1.43,0.56,2.34c0,0.72-0.1,1.38-0.29,2c-1.11,4.07-2.12,7.61-3.03,10.62
		c-0.91,3.01-1.68,5.57-2.32,7.69c-0.63,2.12-1.12,3.84-1.46,5.18c-0.34,1.34-0.51,2.34-0.51,3.03s0.09,1.45,0.27,2.29
		c0.18,0.85,0.45,1.64,0.81,2.37c0.36,0.73,0.81,1.34,1.37,1.83c0.55,0.49,1.22,0.73,2,0.73c1.37,0,2.75-0.42,4.15-1.27
		c1.4-0.85,2.73-1.88,4-3.1s2.42-2.52,3.44-3.91c1.03-1.38,1.86-2.61,2.51-3.69l1.27-2.2c0.78-1.37,1.5-2.94,2.17-4.71
		c0.67-1.77,1.25-3.56,1.76-5.35c0.5-1.79,0.94-3.47,1.29-5.05c0.36-1.58,0.63-2.84,0.83-3.78l1.27-6.49
		c0.26-1.24,0.66-2.09,1.2-2.56c0.54-0.47,1.44-0.71,2.71-0.71c0.81,0,1.55,0.09,2.2,0.27c0.65,0.18,1.2,0.5,1.66,0.95
		c0.46,0.46,0.8,1.07,1.03,1.83c0.23,0.77,0.34,1.75,0.34,2.95c0,1.4-0.22,3.12-0.66,5.15c-0.44,2.03-0.92,4.08-1.44,6.13
		c-0.29,1.2-0.59,2.48-0.9,3.83c-0.31,1.35-0.59,2.7-0.83,4.05c-0.24,1.35-0.44,2.64-0.59,3.86s-0.22,2.32-0.22,3.29
		c0,1.66,0.06,3.32,0.17,4.98c0.11,1.66,0.17,3.42,0.17,5.27c0,0.85-0.02,1.6-0.07,2.25c-0.05,0.65-0.12,1.14-0.22,1.46
		c-0.36,1.27-0.82,2.21-1.39,2.83c-0.57,0.62-1.54,0.93-2.91,0.93c-0.94,0-1.69-0.11-2.25-0.32c-0.55-0.21-0.99-0.5-1.29-0.86
		c-0.31-0.36-0.51-0.76-0.61-1.2s-0.16-0.89-0.2-1.34l-0.54-9.23l-0.44,0.15c-1.07,1.37-2.25,2.9-3.52,4.59
		c-1.27,1.69-2.67,3.27-4.2,4.74c-1.53,1.46-3.2,2.69-5,3.69c-1.81,0.99-3.77,1.49-5.88,1.49c-0.42,0-0.97-0.11-1.64-0.32
		c-0.67-0.21-1.36-0.48-2.08-0.81c-0.72-0.33-1.4-0.69-2.05-1.1c-0.65-0.41-1.17-0.79-1.56-1.15c-1.79-1.66-3.06-3.53-3.81-5.62
		c-0.75-2.08-1.12-4.2-1.12-6.35c0-1.2,0.1-2.41,0.29-3.61c0.2-1.2,0.42-2.37,0.68-3.49c0.26-1.12,0.54-2.18,0.85-3.17
		c0.31-0.99,0.56-1.88,0.76-2.66c0.62-2.44,1.17-4.59,1.66-6.44s0.92-3.48,1.29-4.88c0.37-1.4,0.69-2.6,0.95-3.59
		C1210.83,527.12,1211.06,526.25,1211.25,525.5z"/>
	<path class="st0" d="M1259.35,560.31c0.26,0,0.5,0.03,0.71,0.1c0.21,0.07,0.45,0.14,0.71,0.22c0.26,0.08,0.55,0.15,0.88,0.22
		c0.33,0.07,0.75,0.1,1.27,0.1c1.53,0,3.23-0.16,5.1-0.49c1.87-0.32,3.64-0.75,5.3-1.27c1.66-0.52,3.08-1.11,4.27-1.78
		c1.19-0.67,1.86-1.36,2.03-2.08c0.1-0.39,0.15-0.73,0.15-1.03c0-0.55-0.27-1.08-0.81-1.59c-0.54-0.5-1.21-0.98-2.03-1.44
		c-0.81-0.46-1.69-0.88-2.64-1.27c-0.94-0.39-1.82-0.75-2.64-1.07l-1.66-0.68c-0.85-0.32-1.68-0.72-2.49-1.2
		c-0.81-0.47-1.57-1.02-2.27-1.64c-0.7-0.62-1.32-1.34-1.86-2.17s-0.94-1.78-1.2-2.86c-0.13-0.46-0.24-0.91-0.32-1.37
		c-0.08-0.46-0.12-0.94-0.12-1.46c0-0.85,0.28-1.81,0.85-2.91c0.57-1.09,1.33-2.17,2.29-3.25c0.96-1.07,2.05-2.1,3.27-3.08
		s2.5-1.79,3.83-2.44c0.98-0.68,1.92-1.3,2.83-1.86c0.91-0.55,1.83-1.03,2.76-1.42s1.87-0.7,2.83-0.93
		c0.96-0.23,1.98-0.34,3.05-0.34c0.98,0,2.03,0.05,3.17,0.15c1.14,0.1,2.18,0.33,3.13,0.68c0.94,0.36,1.73,0.89,2.37,1.59
		c0.63,0.7,0.95,1.64,0.95,2.81c0,0.36-0.05,0.83-0.15,1.42s-0.26,1.17-0.49,1.76c-0.23,0.59-0.5,1.09-0.83,1.51
		c-0.33,0.42-0.72,0.63-1.17,0.63c-0.75,0-1.37-0.15-1.86-0.44s-0.93-0.61-1.32-0.95s-0.8-0.66-1.22-0.95
		c-0.42-0.29-0.94-0.44-1.56-0.44c-0.75,0-1.62,0.14-2.61,0.42c-0.99,0.28-2.01,0.65-3.05,1.12c-1.04,0.47-2.06,1.02-3.05,1.64
		c-0.99,0.62-1.89,1.25-2.69,1.9c-0.8,0.65-1.44,1.29-1.93,1.93s-0.73,1.21-0.73,1.73c0,0.55,0.18,1.01,0.54,1.37
		c0.36,0.36,0.81,0.67,1.37,0.93c0.72,0.39,1.54,0.78,2.47,1.17c0.93,0.39,1.86,0.78,2.81,1.17c0.94,0.39,1.86,0.78,2.76,1.17
		c0.89,0.39,1.67,0.75,2.32,1.07c0.88,0.46,1.67,0.9,2.37,1.34c0.7,0.44,1.29,0.92,1.78,1.44c0.49,0.52,0.86,1.11,1.12,1.76
		c0.26,0.65,0.39,1.42,0.39,2.29c0,0.42-0.03,0.85-0.1,1.27c-0.07,0.42-0.16,0.91-0.29,1.46c-0.1,0.49-0.27,1.06-0.51,1.71
		c-0.24,0.65-0.5,1.29-0.78,1.93c-0.28,0.63-0.56,1.2-0.85,1.71c-0.29,0.5-0.54,0.84-0.73,1c-1.27,1.17-2.77,2.27-4.49,3.3
		c-1.73,1.03-3.52,1.92-5.4,2.69c-1.87,0.76-3.74,1.38-5.62,1.83c-1.87,0.46-3.59,0.68-5.15,0.68c-0.78,0-1.64-0.15-2.59-0.46
		c-0.94-0.31-1.82-0.72-2.61-1.22c-0.8-0.5-1.46-1.08-2-1.73c-0.54-0.65-0.81-1.3-0.81-1.95c0-0.32,0.1-0.69,0.29-1.1
		c0.2-0.41,0.44-0.78,0.73-1.12s0.61-0.63,0.95-0.88S1259.05,560.31,1259.35,560.31z"/>
	<path class="st0" d="M1354.66,543.76c1.46-4.49,2.86-8.8,4.2-12.94c1.33-4.13,2.51-7.96,3.54-11.47s1.84-6.62,2.44-9.33
		c0.6-2.7,0.94-4.85,1-6.45c0.39-1.53,1.08-2.75,2.08-3.66c0.99-0.91,2.14-1.37,3.44-1.37c0.78,0,1.45,0.18,2,0.54
		c0.55,0.36,1,0.83,1.34,1.42s0.59,1.25,0.76,1.98c0.16,0.73,0.24,1.47,0.24,2.22c0,0.55-0.03,1.06-0.1,1.51
		c-0.07,0.46-0.15,0.9-0.24,1.32c-0.75,3-1.64,6.09-2.69,9.28c-1.04,3.19-2.11,6.42-3.2,9.69c-1.09,3.27-2.17,6.55-3.25,9.84
		c-1.07,3.29-2.04,6.51-2.88,9.67l-0.88,3.32c-0.46,1.69-0.85,3.3-1.17,4.83c-0.33,1.53-0.49,2.77-0.49,3.71
		c0,0.52,0.1,0.94,0.29,1.25c0.2,0.31,0.57,0.46,1.12,0.46c1.33,0,2.9-0.22,4.69-0.66c1.79-0.44,3.65-0.98,5.57-1.61
		c1.92-0.63,3.83-1.33,5.74-2.1c1.9-0.77,3.65-1.49,5.25-2.17c0.85-0.36,1.57-0.67,2.17-0.93c0.6-0.26,1.35-0.58,2.25-0.95
		c0.89-0.38,2.09-0.87,3.59-1.49c1.5-0.62,3.56-1.48,6.2-2.59c0.46-0.16,0.85-0.3,1.2-0.41c0.34-0.11,0.66-0.17,0.95-0.17
		c0.52,0,0.97,0.1,1.34,0.29c0.37,0.2,0.67,0.46,0.88,0.78c0.21,0.33,0.37,0.7,0.46,1.12c0.1,0.42,0.15,0.85,0.15,1.27
		c0,0.72-0.06,1.34-0.17,1.88c-0.11,0.54-0.24,0.98-0.37,1.34c-0.39,0.62-0.9,1.18-1.51,1.69c-0.62,0.5-1.27,0.94-1.95,1.32
		c-0.68,0.37-1.35,0.69-2,0.95c-0.65,0.26-1.19,0.46-1.61,0.59c-0.52,0.2-1.21,0.46-2.08,0.78c-0.86,0.33-1.8,0.68-2.81,1.07
		c-1.01,0.39-2.05,0.79-3.13,1.2c-1.07,0.41-2.08,0.79-3.03,1.15c-0.94,0.36-1.78,0.68-2.51,0.95c-0.73,0.28-1.25,0.46-1.54,0.56
		c-1.4,0.52-2.95,1.11-4.66,1.76c-1.71,0.65-3.41,1.27-5.1,1.86c-1.69,0.59-3.3,1.08-4.81,1.49c-1.51,0.41-2.78,0.61-3.78,0.61
		c-1.24,0-2.21-0.1-2.91-0.29c-0.7-0.2-1.33-0.46-1.88-0.8c-0.55-0.34-1.12-0.76-1.68-1.25c-0.57-0.49-1.33-1.03-2.27-1.61
		c-0.85-0.52-1.45-1.24-1.81-2.15c-0.36-0.91-0.54-1.89-0.54-2.93c0-0.52,0.04-1.12,0.12-1.81c0.08-0.68,0.19-1.4,0.32-2.15
		c0.13-0.75,0.28-1.48,0.44-2.2c0.16-0.71,0.34-1.35,0.54-1.9L1354.66,543.76z"/>
	<path class="st0" d="M1409.1,550.26c0.49-1.98,1.25-4.09,2.27-6.32c1.03-2.23,2.37-4.48,4.03-6.76c1.66-2.28,3.65-4.51,5.98-6.69
		c2.33-2.18,5.02-4.22,8.08-6.1c0.49-0.29,1.24-0.61,2.25-0.95c1.01-0.34,2.05-0.54,3.13-0.61c1.27-1.37,2.98-2.05,5.13-2.05
		c2.54,0,4.68,0.64,6.42,1.93c1.74,1.29,3.18,3.04,4.32,5.25c0.36,0.72,0.69,1.42,1,2.1c0.31,0.68,0.57,1.41,0.78,2.17
		c0.21,0.77,0.38,1.59,0.51,2.47c0.13,0.88,0.2,1.87,0.2,2.98c0,2.57-0.41,5.19-1.22,7.86c-0.81,2.67-1.97,5.27-3.47,7.81
		c-1.5,2.54-3.31,4.97-5.44,7.3c-2.13,2.33-4.5,4.42-7.1,6.27c-1.76,1.27-3.7,2.25-5.83,2.96c-2.13,0.7-4.52,1.05-7.15,1.05
		c-2.51,0-4.68-0.33-6.52-1c-1.84-0.67-3.37-1.62-4.59-2.86c-1.22-1.24-2.13-2.72-2.73-4.44c-0.6-1.72-0.9-3.64-0.9-5.76
		C1408.22,554.8,1408.52,552.6,1409.1,550.26z M1417.21,550.89c-0.2,0.75-0.33,1.46-0.42,2.13c-0.08,0.67-0.12,1.31-0.12,1.93
		c0,1.07,0.14,2.08,0.42,3c0.28,0.93,0.72,1.72,1.34,2.39c0.62,0.67,1.39,1.19,2.32,1.56c0.93,0.37,2.06,0.56,3.39,0.56
		c2.47,0,4.78-0.63,6.91-1.88c2.13-1.25,4.03-2.82,5.69-4.71c1.66-1.89,3.05-3.91,4.17-6.08c1.12-2.17,1.91-4.16,2.37-5.98
		c0.29-1.14,0.54-2.21,0.76-3.22c0.21-1.01,0.32-1.94,0.32-2.78c0-0.85-0.16-1.64-0.46-2.37c-0.31-0.73-0.71-1.55-1.2-2.47
		c-0.29-0.55-0.59-1.13-0.88-1.73c-0.29-0.6-0.55-1.2-0.78-1.78c-0.26,0.46-0.54,0.85-0.83,1.2s-0.73,0.65-1.32,0.93
		c-0.59,0.28-1.38,0.53-2.39,0.76c-1.01,0.23-2.33,0.42-3.96,0.59c-1.07,0.36-2.17,0.91-3.27,1.66c-1.11,0.75-2.19,1.63-3.25,2.64
		c-1.06,1.01-2.07,2.1-3.03,3.27c-0.96,1.17-1.82,2.37-2.59,3.59c-0.77,1.22-1.43,2.42-2,3.59
		C1417.83,548.84,1417.44,549.91,1417.21,550.89z"/>
	<path class="st0" d="M1462.47,563.93c0.42-2.28,0.91-4.79,1.46-7.52c0.55-2.73,1.12-5.5,1.71-8.3c0.59-2.8,1.16-5.55,1.71-8.25
		c0.55-2.7,1.03-5.18,1.42-7.42c-0.03-0.33-0.05-0.61-0.05-0.85s0-0.51,0-0.81c0-1.01,0.06-2.02,0.2-3.03
		c0.13-1.01,0.31-1.94,0.54-2.78c0.36-1.24,0.76-2.08,1.2-2.51s1.15-0.66,2.12-0.66c0.94,0,1.7,0.19,2.27,0.56
		c0.57,0.37,1.02,0.87,1.34,1.49c0.33,0.62,0.54,1.33,0.63,2.12c0.1,0.8,0.15,1.62,0.15,2.47c0,0.46-0.02,0.96-0.05,1.51
		c-0.03,0.55-0.05,0.99-0.05,1.32c0.91-0.94,1.88-1.91,2.91-2.91c1.03-0.99,2.12-1.89,3.27-2.69c1.16-0.8,2.38-1.46,3.66-1.98
		c1.29-0.52,2.63-0.78,4.03-0.78c0.55,0,1.1,0.05,1.64,0.15s1.08,0.23,1.64,0.39c0.65,0.16,1.33,0.38,2.03,0.66
		c0.7,0.28,1.38,0.66,2.03,1.15c1.07,0.81,1.98,1.83,2.71,3.05s1.1,2.47,1.1,3.74c0,0.49-0.1,1.02-0.29,1.59
		c-0.2,0.57-0.46,1.09-0.81,1.56c-0.34,0.47-0.74,0.86-1.2,1.17c-0.46,0.31-0.96,0.46-1.51,0.46c-0.55,0-1.23-0.14-2.03-0.42
		c-0.8-0.28-1.46-0.64-1.98-1.1c-0.23-0.2-0.46-0.47-0.71-0.83c-0.24-0.36-0.47-0.72-0.68-1.07c-0.21-0.36-0.41-0.69-0.59-1
		c-0.18-0.31-0.32-0.51-0.42-0.61c-0.16-0.03-0.34-0.06-0.54-0.07c-0.2-0.02-0.38-0.02-0.54-0.02c-1.66,0-3.24,0.42-4.74,1.27
		c-1.5,0.85-2.9,1.88-4.2,3.1c-1.3,1.22-2.5,2.52-3.59,3.91c-1.09,1.38-2.04,2.63-2.86,3.73c-0.65,2.64-1.38,5.45-2.17,8.42
		c-0.8,2.98-1.59,6.1-2.37,9.35v1.22c0,0.98-0.03,1.97-0.1,2.98c-0.07,1.01-0.26,1.9-0.59,2.69c-0.36,0.49-0.87,0.9-1.54,1.25
		c-0.67,0.34-1.44,0.51-2.32,0.51c-1.37,0-2.39-0.45-3.08-1.34c-0.68-0.9-1.03-1.95-1.03-3.15
		C1462.23,565.08,1462.31,564.51,1462.47,563.93z"/>
	<path class="st0" d="M1503.39,550.11c0-1.4,0.37-2.59,1.12-3.56c0.75-0.98,1.74-1.63,2.98-1.95c0.36-0.71,0.91-1.68,1.66-2.9
		c0.75-1.22,1.68-2.55,2.78-3.98c1.11-1.43,2.37-2.87,3.78-4.32c1.42-1.45,2.98-2.77,4.69-3.96c1.71-1.19,3.55-2.16,5.52-2.91
		c1.97-0.75,4.06-1.12,6.27-1.12c1.89,0,3.53,0.23,4.93,0.68c1.4,0.46,2.55,1.09,3.47,1.9c0.91,0.81,1.59,1.78,2.05,2.91
		c0.46,1.12,0.68,2.34,0.68,3.64c0,1.11-0.15,2.17-0.44,3.17c-0.46,1.82-1.3,3.42-2.54,4.78c-1.24,1.37-2.69,2.56-4.37,3.59
		c-1.68,1.03-3.5,1.88-5.47,2.56c-1.97,0.68-3.94,1.25-5.91,1.71c-1.97,0.46-3.87,0.81-5.69,1.05c-1.82,0.24-3.4,0.43-4.74,0.56
		c-0.29,0.59-0.55,1.33-0.76,2.22c-0.21,0.89-0.32,1.77-0.32,2.61c0,1.89,0.75,3.35,2.25,4.39c1.5,1.04,3.56,1.56,6.2,1.56
		c1.53,0,2.99-0.17,4.39-0.51c1.4-0.34,2.73-0.78,3.98-1.32c1.25-0.54,2.43-1.12,3.54-1.76c1.11-0.63,2.12-1.26,3.03-1.88
		c1.17-0.78,2.29-1.44,3.34-1.98c1.06-0.54,1.99-0.81,2.81-0.81c0.81,0,1.33,0.2,1.56,0.61c0.23,0.41,0.34,0.84,0.34,1.29
		c0,0.26-0.01,0.51-0.02,0.76c-0.02,0.24-0.04,0.45-0.07,0.61c-0.16,0.85-0.49,1.69-0.98,2.54c-0.49,0.85-1.11,1.58-1.86,2.2
		c-3.39,2.67-6.86,4.57-10.42,5.71c-3.56,1.14-7.37,1.71-11.4,1.71c-0.78,0-1.7-0.05-2.76-0.15c-1.06-0.1-2.16-0.29-3.3-0.59
		c-1.14-0.29-2.26-0.71-3.37-1.27c-1.11-0.55-2.09-1.29-2.95-2.2c-0.86-0.91-1.56-2.03-2.1-3.37c-0.54-1.33-0.81-2.95-0.81-4.83
		c0-1.53,0.21-3.24,0.63-5.13c-0.42-0.06-0.82-0.28-1.2-0.66C1503.58,551.37,1503.39,550.83,1503.39,550.11z M1533.96,536.58
		c0.06-0.16,0.1-0.31,0.1-0.44c0-0.13,0-0.28,0-0.44c0-0.88-0.33-1.54-0.98-1.98c-0.65-0.44-1.43-0.66-2.34-0.66
		c-1.43,0-2.84,0.37-4.22,1.12c-1.38,0.75-2.69,1.68-3.91,2.81s-2.3,2.33-3.25,3.61c-0.94,1.29-1.68,2.45-2.2,3.49
		c2.34-0.2,4.49-0.51,6.45-0.95s3.65-0.99,5.1-1.66c1.45-0.67,2.62-1.42,3.52-2.25C1533.12,538.42,1533.7,537.53,1533.96,536.58z"/>
	<path class="st0" d="M1588.16,528.87c-1.14,0-2.36,0.27-3.66,0.81c-1.3,0.54-2.65,1.26-4.05,2.17c-1.4,0.91-2.82,1.95-4.27,3.1
		c-1.45,1.16-2.87,2.35-4.27,3.59c-0.72,0.62-1.4,1.18-2.05,1.68c-0.65,0.5-1.3,0.89-1.95,1.15c-0.46,0.75-0.94,1.73-1.44,2.96
		c-0.5,1.22-1,2.55-1.49,4c-0.49,1.45-0.95,2.93-1.39,4.44s-0.81,2.92-1.1,4.22c-0.16,0.68-0.29,1.35-0.39,2
		c-0.1,0.65-0.21,1.34-0.34,2.08c-0.13,0.73-0.29,1.52-0.46,2.37c-0.18,0.85-0.4,1.79-0.66,2.83c-0.16,0.62-0.42,1.12-0.78,1.49
		c-0.36,0.37-0.73,0.66-1.12,0.85s-0.77,0.32-1.12,0.37c-0.36,0.05-0.63,0.07-0.83,0.07c-1.24,0-2.25-0.29-3.03-0.88
		s-1.17-1.72-1.17-3.42c0-0.46,0.02-0.94,0.05-1.44c0.03-0.5,0.13-1.07,0.29-1.69c0.72-3.09,1.41-5.88,2.08-8.35
		c0.67-2.47,1.34-4.77,2.03-6.88c0.68-2.12,1.38-4.11,2.08-5.98c0.7-1.87,1.42-3.76,2.15-5.66s1.5-3.87,2.29-5.91
		c0.8-2.03,1.65-4.29,2.56-6.76c0.2-0.55,0.71-1.02,1.54-1.39c0.83-0.37,1.72-0.56,2.66-0.56c1.24,0,2.25,0.28,3.05,0.83
		c0.8,0.55,1.2,1.35,1.2,2.39c0,0.1-0.03,0.28-0.1,0.54c-0.07,0.26-0.16,0.54-0.29,0.83l-2.15,5.08c1.37-1.07,2.79-2.15,4.27-3.22
		c1.48-1.07,3-2.04,4.57-2.91c1.56-0.86,3.13-1.56,4.71-2.1c1.58-0.54,3.13-0.81,4.66-0.81c3.13,0,5.57,0.84,7.32,2.51
		c1.76,1.68,2.64,4.27,2.64,7.79c0,2.02-0.35,4.31-1.05,6.88c-0.7,2.57-1.58,5.33-2.64,8.28c-1.06,2.95-2.2,6.04-3.42,9.28
		c-1.22,3.24-2.35,6.54-3.39,9.89c-0.29,0.91-0.59,1.68-0.9,2.29c-0.31,0.62-0.68,1.12-1.1,1.49c-0.42,0.37-0.92,0.64-1.49,0.8
		c-0.57,0.16-1.26,0.24-2.08,0.24c-1.27,0-2.15-0.24-2.64-0.71c-0.49-0.47-0.73-1.23-0.73-2.27c0-0.91,0.14-2.03,0.42-3.34
		c0.28-1.32,0.67-2.77,1.17-4.35c0.5-1.58,1.09-3.26,1.76-5.05c0.67-1.79,1.39-3.61,2.17-5.47c0.62-1.5,1.23-2.99,1.83-4.49
		c0.6-1.5,1.14-2.95,1.61-4.35c0.47-1.4,0.85-2.73,1.15-4s0.44-2.44,0.44-3.52c0-1.01-0.22-1.9-0.66-2.66
		C1590.18,529.25,1589.36,528.87,1588.16,528.87z"/>
	<path class="st0" d="M1615.69,553.77c0-2.73,0.31-5.57,0.93-8.52c0.62-2.95,1.27-5.77,1.95-8.47c-0.85-0.03-1.71-0.16-2.59-0.39
		c-0.88-0.23-1.68-0.54-2.39-0.93c-0.72-0.39-1.3-0.87-1.76-1.44c-0.46-0.57-0.68-1.23-0.68-1.98c0-0.29,0.06-0.67,0.2-1.12
		c0.13-0.46,0.32-0.9,0.56-1.34s0.56-0.81,0.95-1.12c0.39-0.31,0.83-0.46,1.32-0.46h6.54c0.62,0,1.04-0.27,1.27-0.81
		c0.23-0.54,0.41-1.07,0.54-1.59c0.42-1.89,0.82-3.52,1.2-4.91c0.37-1.38,0.69-2.56,0.95-3.52c0.26-0.96,0.46-1.74,0.61-2.34
		c0.15-0.6,0.22-1.08,0.22-1.44c0-0.42-0.02-0.83-0.05-1.22c-0.03-0.39-0.05-0.93-0.05-1.61v-0.49c0-0.26,0.02-0.6,0.07-1.03
		c0.05-0.42,0.2-1.03,0.46-1.81c0.2-0.62,0.55-1.2,1.07-1.76c0.52-0.55,1.29-0.83,2.29-0.83c0.88,0,1.63,0.18,2.25,0.54
		c0.62,0.36,1.12,0.83,1.51,1.42s0.68,1.25,0.88,2c0.2,0.75,0.29,1.5,0.29,2.25c0,0.81-0.08,1.55-0.24,2.2l-3.56,13.67
		c1.76-0.29,3.32-0.57,4.69-0.83c1.37-0.26,2.73-0.52,4.1-0.78c1.5-0.29,2.79-0.57,3.88-0.83c1.09-0.26,2.03-0.48,2.81-0.66
		c0.78-0.18,1.44-0.33,1.98-0.44c0.54-0.11,0.98-0.17,1.34-0.17c0.52,0,1.05,0.04,1.59,0.12c0.54,0.08,1.01,0.22,1.42,0.42
		c0.41,0.2,0.74,0.47,1,0.83c0.26,0.36,0.39,0.83,0.39,1.42c0,0.78-0.16,1.47-0.46,2.08c-0.31,0.6-0.71,1.12-1.2,1.56
		s-1.04,0.8-1.66,1.07c-0.62,0.28-1.24,0.48-1.86,0.61c-0.52,0.1-1.2,0.24-2.03,0.44s-1.74,0.41-2.73,0.63
		c-0.99,0.23-2.03,0.47-3.1,0.73c-1.07,0.26-2.12,0.52-3.13,0.78c-1.5,0.39-2.78,0.72-3.83,0.98c-1.06,0.26-1.96,0.46-2.71,0.59
		c-0.75,0.13-1.36,0.23-1.83,0.29c-0.47,0.07-0.85,0.1-1.15,0.1c-0.62,1.86-1.16,3.68-1.61,5.47c-0.46,1.79-0.84,3.46-1.15,5.01
		c-0.31,1.55-0.54,2.93-0.68,4.15s-0.22,2.17-0.22,2.86c0,0.88,0.08,1.72,0.24,2.52c0.16,0.8,0.44,1.49,0.83,2.07
		s0.92,1.05,1.59,1.39c0.67,0.34,1.5,0.51,2.51,0.51c1.72,0,3.42-0.47,5.08-1.42c1.66-0.94,3.25-2.14,4.76-3.59
		c1.51-1.45,2.95-3.04,4.3-4.76c1.35-1.72,2.6-3.37,3.74-4.93c0.39-0.59,0.89-0.88,1.51-0.88c0.2,0,0.43,0.03,0.71,0.1
		c0.28,0.07,0.54,0.18,0.81,0.34c0.26,0.16,0.48,0.38,0.66,0.63c0.18,0.26,0.27,0.57,0.27,0.93c0,0.26-0.02,0.46-0.05,0.59
		c-0.52,2.02-1.33,4.04-2.42,6.08c-1.09,2.03-2.21,4.08-3.34,6.13c-0.39,0.72-0.9,1.42-1.54,2.1s-1.33,1.34-2.08,1.98
		c-0.75,0.63-1.53,1.24-2.34,1.81c-0.81,0.57-1.58,1.08-2.29,1.54c-1.24,0.78-2.59,1.32-4.05,1.61s-2.88,0.44-4.25,0.44
		c-2.12,0-4-0.38-5.64-1.15c-1.64-0.77-3.03-1.81-4.15-3.13s-1.98-2.86-2.56-4.62S1615.69,555.79,1615.69,553.77z"/>
	<path class="st0" d="M1660.81,550.11c0-1.4,0.37-2.59,1.12-3.56c0.75-0.98,1.74-1.63,2.98-1.95c0.36-0.71,0.91-1.68,1.66-2.9
		c0.75-1.22,1.68-2.55,2.78-3.98c1.11-1.43,2.37-2.87,3.78-4.32c1.42-1.45,2.98-2.77,4.69-3.96c1.71-1.19,3.55-2.16,5.52-2.91
		c1.97-0.75,4.06-1.12,6.27-1.12c1.89,0,3.53,0.23,4.93,0.68c1.4,0.46,2.55,1.09,3.47,1.9c0.91,0.81,1.59,1.78,2.05,2.91
		c0.46,1.12,0.68,2.34,0.68,3.64c0,1.11-0.15,2.17-0.44,3.17c-0.46,1.82-1.3,3.42-2.54,4.78c-1.24,1.37-2.69,2.56-4.37,3.59
		c-1.68,1.03-3.5,1.88-5.47,2.56c-1.97,0.68-3.94,1.25-5.91,1.71c-1.97,0.46-3.87,0.81-5.69,1.05c-1.82,0.24-3.4,0.43-4.74,0.56
		c-0.29,0.59-0.55,1.33-0.76,2.22c-0.21,0.89-0.32,1.77-0.32,2.61c0,1.89,0.75,3.35,2.25,4.39c1.5,1.04,3.56,1.56,6.2,1.56
		c1.53,0,2.99-0.17,4.39-0.51c1.4-0.34,2.73-0.78,3.98-1.32c1.25-0.54,2.43-1.12,3.54-1.76c1.11-0.63,2.12-1.26,3.03-1.88
		c1.17-0.78,2.29-1.44,3.34-1.98c1.06-0.54,1.99-0.81,2.81-0.81c0.81,0,1.33,0.2,1.56,0.61c0.23,0.41,0.34,0.84,0.34,1.29
		c0,0.26-0.01,0.51-0.02,0.76c-0.02,0.24-0.04,0.45-0.07,0.61c-0.16,0.85-0.49,1.69-0.98,2.54c-0.49,0.85-1.11,1.58-1.86,2.2
		c-3.39,2.67-6.86,4.57-10.42,5.71c-3.56,1.14-7.37,1.71-11.4,1.71c-0.78,0-1.7-0.05-2.76-0.15c-1.06-0.1-2.16-0.29-3.3-0.59
		c-1.14-0.29-2.26-0.71-3.37-1.27c-1.11-0.55-2.09-1.29-2.95-2.2c-0.86-0.91-1.56-2.03-2.1-3.37c-0.54-1.33-0.81-2.95-0.81-4.83
		c0-1.53,0.21-3.24,0.63-5.13c-0.42-0.06-0.82-0.28-1.2-0.66C1661,551.37,1660.81,550.83,1660.81,550.11z M1691.38,536.58
		c0.06-0.16,0.1-0.31,0.1-0.44c0-0.13,0-0.28,0-0.44c0-0.88-0.33-1.54-0.98-1.98c-0.65-0.44-1.43-0.66-2.34-0.66
		c-1.43,0-2.84,0.37-4.22,1.12c-1.38,0.75-2.69,1.68-3.91,2.81s-2.3,2.33-3.25,3.61c-0.94,1.29-1.68,2.45-2.2,3.49
		c2.34-0.2,4.49-0.51,6.45-0.95s3.65-0.99,5.1-1.66c1.45-0.67,2.62-1.42,3.52-2.25C1690.54,538.42,1691.12,537.53,1691.38,536.58z"
		/>
</g>
<g>
	<g>
		<path d="M932.35,425.96c-0.33,23.32-0.35,46.64-0.06,69.96c0.3,23.32,0.91,46.64,1.84,69.94c0.52,13.1,1.15,26.2,1.87,39.29
			c0.11,1.92,3.11,1.93,3,0c-1.28-23.29-2.25-46.59-2.9-69.9c-0.65-23.31-0.99-46.63-1.01-69.96c-0.01-13.11,0.08-26.23,0.27-39.34
			C935.38,424.03,932.38,424.03,932.35,425.96L932.35,425.96z"/>
	</g>
</g>
</svg>
